<svg xmlns="http://www.w3.org/2000/svg" viewBox="0 0 648 432"><path fill="#D0D0D0" d="M0 0h648v432H0V0z"/><path fill="#888" d="M304.3 196.9c0 4.3-1.3 7.9-3.9 10.9-2.6 3-6.2 5.1-10.9 6.2v.3c5.5.7 9.7 2.4 12.6 5 2.8 2.7 4.3 6.3 4.3 10.8 0 6.6-2.4 11.7-7.2 15.4s-11.6 5.5-20.5 5.5c-7.4 0-14-1.2-19.8-3.7V235c2.7 1.3 5.6 2.4 8.8 3.3s6.3 1.3 9.5 1.3c4.8 0 8.3-.8 10.6-2.4 2.3-1.6 3.4-4.2 3.4-7.8 0-3.2-1.3-5.5-3.9-6.8s-6.8-2-12.6-2h-5.2v-11.1h5.3c5.3 0 9.2-.7 11.6-2.1 2.5-1.4 3.7-3.8 3.7-7.1 0-5.2-3.3-7.8-9.8-7.8-2.2 0-4.5.4-6.9 1.1-2.3.8-4.9 2-7.8 3.9l-6.7-10c6.2-4.5 13.7-6.8 22.4-6.8 7.1 0 12.7 1.4 16.8 4.3 4.1 2.8 6.2 6.8 6.2 11.9zm11.2 7.8c0-2.6.7-4.6 2.1-6s3.5-2 6.1-2c2.6 0 4.6.7 6 2.1s2.1 3.3 2.1 5.9c0 2.5-.7 4.5-2.2 5.9s-3.4 2.1-6 2.1-4.7-.7-6.1-2.1c-1.3-1.4-2-3.3-2-5.9zm0 38.7c0-2.6.7-4.6 2.1-6s3.5-2 6.1-2c2.6 0 4.6.7 6 2.1s2.1 3.3 2.1 5.9c0 2.5-.7 4.4-2.2 5.8s-3.4 2.1-6 2.1-4.7-.7-6.1-2.1c-1.3-1.3-2-3.2-2-5.8zm73.6 6.7h-47.9V240l17.2-17.4c5.1-5.2 8.4-8.8 10-10.9s2.7-3.9 3.4-5.6 1-3.5 1-5.3c0-2.8-.8-4.8-2.3-6.1s-3.5-2-6.1-2c-2.7 0-5.2.6-7.7 1.8s-5.1 3-7.8 5.2l-7.9-9.3c3.4-2.9 6.2-4.9 8.4-6.1s4.6-2.1 7.3-2.7 5.6-1 8.8-1c4.3 0 8.1.8 11.3 2.3s5.8 3.8 7.6 6.6 2.7 6 2.7 9.7c0 3.2-.6 6.1-1.7 8.9s-2.8 5.6-5.2 8.5-6.4 7-12.3 12.4l-8.8 8.3v.7H389v12.1z"/></svg>