<svg xmlns="http://www.w3.org/2000/svg" width="2994" height="244"><path fill="#fff" opacity=".2" d="M124.84.5v40.69h-6.69V.5h6.69zm15.34 1.39l6.58 1.21-7.36 40.02-6.58-1.21 7.36-40.02zm-37.78.07l7.5 39.99-6.57 1.23-7.5-39.99 6.57-1.23zm59.59 5.41l6.24 2.39-4.87 12.66-9.74 25.33-4.16-1.6-2.08-.8 14.61-37.98zm-81.38.15l8.74 22.51 5.99 15.42-1.97.76-4.26 1.65L78.48 20.5 74.37 9.93l6.24-2.41zm101.81 9.25l5.7 3.5-1.33 2.16-20.02 32.49-5.69-3.5 19.2-31.16 2.14-3.49zm-122.21.21l21.47 34.58-3.14 1.94L76 55.08 54.53 20.5v-.01l5.68-3.51zm140.56 12.77l1.57 1.42 3.38 3.06-27.37 30.14-1.48-1.34-3.47-3.15 27.37-30.13zm-158.86.28l27.48 30.05-4.94 4.5-15.39-16.83-12.09-13.22 1.65-1.5 3.29-3zm174.51 15.85l4.04 5.32-11.47 8.69L188 75.8l-4.04-5.32 21.64-16.4 10.82-8.2zm-190.1.33l2.04 1.54 30.5 22.95-4.03 5.33L22.3 51.55l4.02-5.34zm202.5 18.4l2.94 5.87.05.1-36.43 18.22-2.99-5.97v-.01l36.43-18.21zm-214.84.37l36.5 18.09-2.97 5.98L20.76 75.8l-9.75-4.83 2.97-5.99zM237.56 85.3l1.84 6.42-33.57 9.61-5.61 1.61-1.84-6.42 19.59-5.61 19.59-5.61zm-232.25.4l39.21 11.08-1.82 6.42L3.49 92.13v-.01l1.82-6.42zm237.04 21.54l.63 6.65-38.4 3.62-2.17.21-.38-3.99-.25-2.66 40.57-3.83zm-241.74.42l40.58 3.69-.6 6.65L0 114.31l.61-6.65zM202.41 126l40.59 3.69-.61 6.65-40.58-3.69.6-6.65zm-161.81.28l.63 6.65-40.57 3.83-.63-6.65 40.57-3.83zm159.7 14.51l11.08 3.13 28.13 7.95-1.82 6.42-39.22-11.08 1.83-6.42zm-157.53.28l1.84 6.42-26.95 7.71-12.22 3.5-1.84-6.42 25.19-7.21 13.98-4zm152.72 13.87l36.5 18.09-2.97 5.98-36.5-18.09 1.86-3.74 1.11-2.24zm-147.86.26l3 5.97-36.44 18.22-2.99-5.97 36.43-18.22zm140.53 12.77l32.55 24.49-4.03 5.33-32.55-24.49 4.03-5.33zM55 168.2l3.07 4.04.97 1.28-32.46 24.6-4.04-5.32L55 168.2zm123.55 11.23l27.48 30.05-4.94 4.5-27.48-30.04 4.94-4.51zm-113.9.19l4.95 4.48-27.37 30.14-4.95-4.48 27.37-30.14zm102.34 9.3l15.56 25.05 5.92 9.53-5.68 3.52-10.9-17.55-10.58-17.03 5.68-3.52zm-90.75.16l5.7 3.5-13.3 21.58-5.9 9.58-2.15 3.5-3.87-2.38-1.82-1.12 16.94-27.49 4.4-7.17zm77.65 7.06l6.46 16.64 8.27 21.3-6.23 2.41-14.74-37.93 6.24-2.42zm-64.52.11l6.24 2.39-14.6 37.98-6.24-2.39 14.6-37.98zm50.3 4.57l4.51 24.04 2.99 15.96-3.29.61-3.29.61-7.49-40 6.57-1.22zm-36.07.06l6.58 1.21-7.36 40.02h-.01l-6.56-1.2 7.35-40.03zm21.24 1.93v40.69h-6.69v-40.69h6.69zm271.66-93.47c-6.98 0-12.66 5.68-12.66 12.66s5.68 12.65 12.66 12.65 12.66-5.68 12.66-12.65c0-6.98-5.68-12.66-12.66-12.66zm0-8.28c11.54 0 20.94 9.39 20.94 20.94 0 11.54-9.39 20.93-20.94 20.93s-20.94-9.39-20.94-20.93c0-11.55 9.4-20.94 20.94-20.94zm0-11.83c-18.07 0-32.77 14.7-32.77 32.77 0 18.07 14.7 32.77 32.77 32.77s32.77-14.7 32.77-32.77c0-18.07-14.7-32.77-32.77-32.77zm0-8.28c22.63 0 41.05 18.41 41.05 41.05 0 22.63-18.41 41.05-41.05 41.05s-41.05-18.41-41.05-41.05c0-22.64 18.42-41.05 41.05-41.05zm0-11.83c-29.16 0-52.88 23.72-52.88 52.88 0 29.16 23.72 52.88 52.88 52.88s52.88-23.72 52.88-52.88c0-29.16-23.72-52.88-52.88-52.88zm0-8.28c33.73 0 61.16 27.44 61.16 61.16s-27.44 61.16-61.16 61.16-61.16-27.44-61.16-61.16c0-33.73 27.44-61.16 61.16-61.16zm0-11.83c-40.25 0-72.99 32.74-72.99 73 0 40.25 32.75 72.99 72.99 72.99s72.99-32.74 72.99-72.99c0-40.26-32.74-73-72.99-73zm0-8.29c44.82 0 81.27 36.46 81.27 81.28 0 44.81-36.46 81.27-81.27 81.27s-81.28-36.46-81.28-81.27c0-44.81 36.46-81.28 81.28-81.28zm0-11.83c-51.34 0-93.11 41.77-93.11 93.11s41.77 93.11 93.11 93.11 93.11-41.77 93.11-93.11-41.77-93.11-93.11-93.11zm0-8.28c55.9 0 101.39 45.48 101.39 101.39S452.4 223.39 396.5 223.39 295.11 177.91 295.11 122 340.6 20.61 396.5 20.61zm0-11.83c-62.43 0-113.22 50.79-113.22 113.22s50.79 113.22 113.22 113.22S509.72 184.43 509.72 122 458.93 8.78 396.5 8.78zm0-8.28C463.49.5 518 55 518 122s-54.51 121.5-121.5 121.5S275 189 275 122 329.51.5 396.5.5zm245.23 10.4c2.69-.72 5.45.87 6.17 3.56.72 2.69-.88 5.45-3.56 6.17a5.03 5.03 0 01-6.16-3.56 5.02 5.02 0 013.55-6.17zm53.37 3.56c.72-2.69 3.48-4.28 6.17-3.56s4.28 3.48 3.56 6.16a5.027 5.027 0 01-6.16 3.56 5.041 5.041 0 01-3.57-6.16zM671.5.5c6.36 0 11.51 5.15 11.51 11.51 0 6.36-5.15 11.51-11.51 11.51-6.36 0-11.51-5.15-11.51-11.51C659.99 5.65 665.14.5 671.5.5zm45.02 20.49c3.18-5.51 10.22-7.39 15.73-4.21 5.51 3.18 7.39 10.22 4.21 15.73-3.18 5.5-10.22 7.39-15.72 4.21-5.51-3.18-7.4-10.22-4.22-15.73zm-105.77-4.21c5.51-3.18 12.54-1.29 15.73 4.21 3.18 5.51 1.29 12.55-4.22 15.73-5.5 3.18-12.55 1.29-15.72-4.21-3.18-5.51-1.3-12.55 4.21-15.73zm-20.58 23.89a5.046 5.046 0 017.12 0 5.028 5.028 0 010 7.12 5.046 5.046 0 01-7.12 0 5.028 5.028 0 010-7.12zm155.54 0c1.96-1.96 5.15-1.96 7.12 0 1.96 1.96 1.96 5.15 0 7.12a5.046 5.046 0 01-7.12 0c-1.96-1.97-1.96-5.16 0-7.12zm15.28 16.36c5.51-3.18 12.55-1.29 15.73 4.21 3.18 5.51 1.29 12.55-4.21 15.73-5.5 3.18-12.55 1.29-15.73-4.21-3.18-5.51-1.29-12.55 4.21-15.73zm-194.71 4.22c3.18-5.5 10.22-7.39 15.73-4.21 5.51 3.18 7.39 10.22 4.21 15.73-3.18 5.5-10.22 7.39-15.72 4.21-5.52-3.18-7.4-10.22-4.22-15.73zm-5.88 30.98a5.027 5.027 0 016.16-3.56c2.69.72 4.28 3.48 3.56 6.17a5.041 5.041 0 01-6.17 3.56c-2.68-.72-4.27-3.49-3.55-6.17zm216.04-3.56c2.69-.72 5.45.87 6.17 3.56.72 2.69-.88 5.45-3.56 6.17a5.03 5.03 0 01-6.16-3.56 5.02 5.02 0 013.55-6.17zm5.05 21.82c6.36 0 11.51 5.15 11.51 11.51 0 6.36-5.15 11.51-11.51 11.51-6.36 0-11.51-5.15-11.51-11.51 0-6.36 5.15-11.51 11.51-11.51zm-219.98 0c6.36 0 11.51 5.15 11.51 11.51 0 6.36-5.15 11.51-11.51 11.51-6.36 0-11.51-5.15-11.51-11.51 0-6.36 5.15-11.51 11.51-11.51zm2.45 35.11c2.69-.72 5.45.88 6.17 3.56.72 2.68-.88 5.45-3.56 6.16-2.69.72-5.45-.87-6.17-3.56-.72-2.68.87-5.44 3.56-6.16zm208.92 3.56a5.041 5.041 0 016.17-3.56 5.033 5.033 0 11-2.61 9.72 5.018 5.018 0 01-3.56-6.16zm-202.39 17.86c5.51-3.18 12.54-1.29 15.73 4.21 3.18 5.51 1.29 12.55-4.22 15.73-5.5 3.18-12.55 1.29-15.72-4.21-3.18-5.51-1.3-12.55 4.21-15.73zm186.29 4.22c3.18-5.51 10.22-7.39 15.73-4.21 5.51 3.18 7.39 10.22 4.21 15.73-3.18 5.5-10.22 7.39-15.73 4.21-5.5-3.18-7.39-10.23-4.21-15.73zm-11.07 24.97c1.96-1.96 5.15-1.96 7.12 0 1.96 1.96 1.96 5.15 0 7.12a5.046 5.046 0 01-7.12 0 5.046 5.046 0 010-7.12zm-155.54 0a5.046 5.046 0 017.12 0 5.028 5.028 0 010 7.12 5.046 5.046 0 01-7.12 0 5.028 5.028 0 010-7.12zm16.36 15.28c3.18-5.5 10.22-7.39 15.73-4.21 5.51 3.18 7.39 10.22 4.21 15.73-3.18 5.51-10.22 7.39-15.72 4.21-5.51-3.18-7.39-10.22-4.22-15.73zm114.21-4.21c5.51-3.18 12.55-1.29 15.73 4.21 3.18 5.51 1.29 12.55-4.22 15.73-5.5 3.18-12.54 1.29-15.72-4.21-3.19-5.51-1.3-12.55 4.21-15.73zm-22.08 16.1c2.69-.72 5.44.87 6.17 3.56.72 2.69-.88 5.45-3.56 6.17-2.69.72-5.45-.88-6.16-3.56-.72-2.69.87-5.46 3.55-6.17zm-60.49 3.55a5.033 5.033 0 016.17-3.56c2.69.72 4.28 3.48 3.56 6.16a5.033 5.033 0 01-6.17 3.56 5.026 5.026 0 01-3.56-6.16zm33.33-6.46c6.36 0 11.51 5.15 11.51 11.51 0 6.36-5.15 11.51-11.51 11.51-6.36 0-11.51-5.15-11.51-11.51 0-6.35 5.15-11.51 11.51-11.51zm364.76-180.34c1.01 1.12 2.01 2.24 2.97 3.43l25 48.6c.42 1.47.78 2.93 1.07 4.42l-29.04-56.45zm-19.14-16.95c.66.44 1.25.85 1.89 1.34l48.96 95.17c.03.8.04 1.57.01 2.36l-50.86-98.87zm-13.77-8.49c.56.24 1.1.54 1.64.84l62.16 120.82c-.09.58-.16 1.19-.27 1.82l-63.53-123.48zm-12.39-5.72c.54.2 1.02.39 1.52.61l72.22 140.38c-.11.54-.22 1.07-.39 1.6L990.96 8.97zm-11.43-3.86c.48.09.94.24 1.43.42l80.34 156.16c-.13.5-.28.96-.48 1.41L979.53 5.11zm-10.69-2.5c.42.07.89.12 1.35.27l87 169.12c-.15.46-.37.87-.56 1.25L968.84 2.61zm-10.19-1.46c.38 0 .84.05 1.27.12l92.61 180.02c-.19.38-.41.79-.64 1.1L958.65 1.15zM948.86.5c.4.03.82.01 1.24.08l97.28 189.09c-.19.38-.45.72-.66 1.06L948.86.5zm-9.27.24c.38-.1.77-.11 1.17-.07l101.12 196.56c-.2.35-.43.66-.74.91L939.59.74zM827.67 147.46l29.04 56.45c-1.04-1.1-2.02-2.24-2.97-3.43l-25-48.6c-.42-1.47-.75-2.94-1.07-4.42zM931.68 1.39l104.34 202.81c-.25.27-.49.54-.8.8L930.57 1.57c.38-.1.74-.14 1.11-.18zm-8.71 1.44l106.81 207.62c-.25.27-.5.54-.8.79L921.87 3.02c.38-.11.74-.15 1.1-.19zm-8.39 1.96l108.74 211.35c-.27.23-.57.49-.86.68L913.53 5.09c.33-.12.7-.22 1.05-.3zM825 124.01l49.26 95.75c-.68-.47-1.31-.96-1.97-1.49l-47.22-91.78c-.05-.85-.08-1.66-.07-2.48zM906.45 7.33l110.06 213.94c-.27.23-.55.43-.9.6L905.43 7.71c.34-.17.67-.29 1.02-.38zm-7.87 3.09l110.85 215.47c-.27.23-.61.41-.91.57L897.59 10.83c.31-.16.65-.33.99-.41zm-72.7 96.94l62.44 121.36c-.6-.32-1.14-.62-1.7-.96L825.68 109.3c.01-.64.09-1.31.2-1.94zm65.11-93.42l111.17 216.07-.08.04c-.3.16-.57.29-.9.41l-111.12-216c.28-.2.55-.33.86-.49.04-.02.04-.02.07-.03zm-7.31 4.15l110.84 215.46c-.28.19-.65.33-.99.41L882.77 18.65c.26-.23.59-.44.91-.56zm-55.35 75.67l72.46 140.83c-.54-.21-1.03-.39-1.52-.62L827.95 95.35c.11-.54.24-1.04.38-1.59zm48.31-71.09L986.7 236.61c-.31.16-.67.3-1.01.38L875.75 23.27c.26-.23.59-.44.89-.6zm-44.89 59.45l80.49 156.46c-.5-.13-.96-.27-1.42-.42L831.26 83.52c.15-.46.3-.92.49-1.4zm38.07-54.35L978.59 239.2c-.36.14-.7.22-1.07.26L868.98 28.49c.25-.27.52-.5.84-.72zM835.88 71.8l87.16 169.42c-.42-.07-.88-.12-1.32-.23L835.3 73.01c.17-.42.39-.83.58-1.21zm27.41-38.35l106.88 207.77c-.38.1-.75.14-1.11.19L862.49 34.24c.25-.27.5-.54.8-.79zm-6.2 6.22l104.42 202.96c-.36.04-.76.11-1.15.11L856.34 40.54c.22-.31.51-.6.75-.87zm-16.52 22.87l92.73 180.25c-.44-.02-.84-.05-1.27-.12l-92.1-179.03c.19-.38.39-.73.64-1.1zm10.64-15.94l101.24 196.79c-.4.06-.78.07-1.19.03L850.5 47.55c.2-.35.43-.66.71-.95zm-5.54 7.58l97.4 189.32c-.41-.03-.83-.01-1.25-.08L845.01 55.24c.18-.38.45-.71.66-1.06zm404.58-43.54l2.03.54-6.85 25.56-2.02-.54 6.84-25.56zm-57.5 0l6.85 25.56-2.03.54-6.85-25.56 2.03-.54zM1224.12.5v39.46h-5.24V.5h5.24zm-61.1 14.97l19.73 34.17-4.54 2.62-19.73-34.17 4.54-2.62zm116.96 0l4.54 2.62-19.73 34.17-4.54-2.62 19.73-34.17zm-139.06 24.47l18.71 18.71-1.48 1.48-18.72-18.71 1.49-1.48zm161.16 0l1.48 1.48-18.71 18.71-1.48-1.48 18.71-18.71zm-184.49 19.04l34.17 19.73-2.62 4.54-34.17-19.73 2.62-4.54zm207.82 0l2.62 4.54-34.17 19.73-2.62-4.54 34.17-19.73zm-214.72 32.24l25.56 6.85-.54 2.02-25.57-6.85.55-2.02zm221.63 0l.54 2.02-25.57 6.85-.54-2.02 25.57-6.85zm10.68 28.16v5.24h-39.46v-5.24H1343zm-203.54 0v5.24H1100v-5.24h39.46zm167.83 24.52l25.57 6.85-.54 2.02-25.57-6.85.54-2.02zm-171.58 0l.54 2.02-25.56 6.85-.54-2.03 25.56-6.84zm13.43 16.85l2.62 4.54-34.17 19.73-2.62-4.54 34.17-19.73zm144.72 0l34.17 19.73-2.62 4.54-34.17-19.73 2.62-4.54zm-135.71 23.11l1.48 1.48-18.71 18.71-1.48-1.48 18.71-18.71zm126.7 0l18.71 18.71-1.48 1.48-18.72-18.71 1.49-1.48zm-20.06 7.88l19.73 34.17-4.54 2.62-19.73-34.17 4.54-2.62zm-86.58 0l4.54 2.62-19.73 34.18-4.54-2.62 19.73-34.18zm67.22 15.51l6.85 25.56-2.03.54-6.85-25.56 2.03-.54zm-47.86 0l2.03.54-6.85 25.56-2.03-.54 6.85-25.56zm26.55-3.21v39.46h-5.24v-39.46h5.24zm358.59-165.71c2.01 0 3.64 1.65 3.64 3.68v28.97l24.9 14.49c1.74 1.01 2.34 3.26 1.34 5.02a3.631 3.631 0 01-3.16 1.84c-.61 0-1.24-.16-1.81-.49l-28.54-16.61V42c-.01-2.02 1.62-3.67 3.63-3.67zm-172.64.12c2.01 0 3.64 1.64 3.64 3.67l.04 33.25-28.52 16.64c-.57.33-1.2.49-1.81.49-1.26 0-2.48-.66-3.15-1.84-1.01-1.76-.41-4.01 1.33-5.02l24.88-14.51-.03-28.99c-.02-2.04 1.61-3.69 3.62-3.69zm151.07-18.47c2.01 0 3.64 1.65 3.64 3.68v60.02l51.4 29.9c1.74 1.01 2.34 3.26 1.34 5.02a3.631 3.631 0 01-3.16 1.84c-.62 0-1.24-.16-1.81-.49l-55.04-32.02V23.66c-.01-2.03 1.62-3.68 3.63-3.68zm-129.44.03c2.01 0 3.64 1.64 3.64 3.67l.08 64.2-54.96 32.06a3.616 3.616 0 01-4.97-1.35 3.69 3.69 0 011.33-5.02l51.32-29.94-.07-59.95a3.651 3.651 0 013.63-3.67zm107.88-11.3c2.01 0 3.64 1.65 3.64 3.68v83.84l71.86 41.81c1.74 1.01 2.34 3.26 1.34 5.02a3.631 3.631 0 01-3.16 1.84c-.61 0-1.24-.16-1.81-.49l-75.5-43.93V12.39c-.01-2.03 1.62-3.68 3.63-3.68zm-86.37.04c2.01 0 3.64 1.64 3.64 3.67l.11 88.07-75.48 44.04a3.616 3.616 0 01-4.97-1.35c-1.01-1.76-.41-4.01 1.33-5.02l71.84-41.91-.1-83.81c-.01-2.04 1.62-3.69 3.63-3.69zm22.03-6.33c2.01.01 3.63 1.66 3.63 3.69l-.36 106.96-91.61 53.45c-.57.34-1.2.49-1.82.49-1.26 0-2.48-.66-3.16-1.84-1-1.76-.41-4.01 1.33-5.02l87.99-51.33.34-102.74c.01-2.02 1.64-3.66 3.64-3.66h.02zm42.77.06c2.01 0 3.64 1.65 3.64 3.68v102.66l87.88 51.67c1.74 1.02 2.33 3.27 1.32 5.03a3.64 3.64 0 01-3.15 1.82c-.62 0-1.25-.16-1.83-.5l-91.5-53.8V6.16c0-2.03 1.63-3.68 3.64-3.68zM1496.45.5c2.01 0 3.64 1.65 3.64 3.68V121.4l100.48 58.61a3.69 3.69 0 011.33 5.02 3.624 3.624 0 01-4.97 1.35l-100.47-58.61-100.47 58.62c-.57.33-1.2.49-1.81.49-1.26 0-2.48-.66-3.16-1.83-1-1.76-.41-4.01 1.33-5.03l100.47-58.62V4.18c-.01-2.03 1.62-3.68 3.63-3.68zm0 143.95l91.58 53.43a3.69 3.69 0 011.33 5.02 3.631 3.631 0 01-4.98 1.35l-87.96-51.32-88.19 51.05a3.61 3.61 0 01-4.96-1.36c-1-1.76-.4-4 1.35-5.01l91.83-53.16zm-.01 25.16l75.46 44.03a3.7 3.7 0 011.33 5.03 3.61 3.61 0 01-4.97 1.34l-71.82-41.9-71.74 41.97c-.57.34-1.2.49-1.82.49-1.26 0-2.48-.65-3.15-1.83-1.01-1.76-.41-4 1.32-5.02l75.39-44.11zm-.02 25.14l55.08 32.14c1.74 1.01 2.34 3.26 1.33 5.02-1 1.76-3.23 2.36-4.97 1.35l-51.44-30.01-51.34 30.03c-.57.34-1.2.5-1.82.5-1.26 0-2.48-.66-3.15-1.83-1.01-1.76-.41-4.01 1.32-5.03l54.99-32.17zm.1 25.23l28.49 16.63c1.74 1.01 2.34 3.26 1.33 5.02a3.612 3.612 0 01-4.97 1.34l-24.85-14.5-24.84 14.53c-.57.34-1.2.5-1.82.5-1.26 0-2.48-.66-3.15-1.84-1.01-1.76-.41-4.01 1.33-5.02l28.48-16.66zm394.92-104.61l-4.78-8.53 2.41-9.48c1.05-4.13-.46-9.76-3.43-12.81l-6.83-7-.12-9.78c-.05-4.26-2.96-9.31-6.63-11.48l-8.41-4.99-2.65-9.41c-1.15-4.1-5.28-8.22-9.38-9.38l-9.41-2.65-4.99-8.41c-2.18-3.67-7.22-6.58-11.48-6.63l-9.78-.12-7-6.83c-3.06-2.98-8.69-4.49-12.81-3.43l-9.47 2.41-8.53-4.78c-3.72-2.09-9.54-2.09-13.26 0l-8.53 4.78-9.48-2.41c-4.13-1.06-9.76.45-12.81 3.43l-7 6.83-9.77.12c-4.27.05-9.31 2.96-11.49 6.63l-4.99 8.41-9.41 2.65c-4.1 1.16-8.22 5.28-9.38 9.38l-2.65 9.41-8.41 4.99c-3.67 2.18-6.58 7.22-6.63 11.48l-.12 9.78-6.83 7c-2.98 3.05-4.49 8.68-3.43 12.81l2.41 9.47-4.79 8.53c-2.09 3.72-2.09 9.55 0 13.26l4.79 8.53-2.41 9.47c-1.05 4.13.45 9.76 3.43 12.81l6.83 7 .12 9.78c.05 4.27 2.96 9.31 6.63 11.49l8.41 4.99 2.65 9.41c1.15 4.11 5.27 8.22 9.38 9.38l9.41 2.65 4.99 8.41c2.18 3.67 7.22 6.58 11.49 6.63l9.77.12 7 6.83c3.05 2.97 8.68 4.48 12.81 3.43l9.48-2.41 8.53 4.78c1.86 1.04 4.24 1.56 6.63 1.56 2.38 0 4.77-.52 6.63-1.56l8.53-4.78 9.48 2.41c.89.23 1.85.34 2.83.34 3.6 0 7.58-1.43 9.98-3.77l7-6.83 9.78-.12c4.26-.05 9.3-2.96 11.48-6.63l4.99-8.41 9.41-2.65c4.1-1.15 8.23-5.27 9.38-9.38l2.65-9.41 8.41-5c3.67-2.18 6.58-7.22 6.63-11.49l.12-9.78 6.83-7c2.97-3.05 4.48-8.68 3.43-12.81l-2.41-9.48 4.78-8.53c2.07-3.69 2.07-9.51-.01-13.23zm-8.12-28.57c2.2 2.25 3.4 6.72 2.62 9.77l-1.58 6.19-2.29-4.08c-1.67-2.97-3.11-8.37-3.15-11.77l-.06-4.68 4.46 4.57zm-43.23 124.59l-7.77 2.18c-.05.01-.11.04-.15.05.04-.07.1-.14.14-.22l4.54-7.64 7.97-2.24c-.21.31-.43.63-.61.93l-4.12 6.94zm-141.3-6.94c-.28-.46-.6-.95-.96-1.44.33.13.65.25.98.35l8.56 2.41 4.54 7.64c.15.26.33.51.51.76-.6-.23-1.19-.44-1.75-.59l-7.77-2.18-4.11-6.95zM1876.62 98.1l-1.36 5.33-1.92-3.43c-1.52-2.7-2.83-7.6-2.86-10.7l-.05-3.93 3.84 3.93c1.97 2.03 3.05 6.06 2.35 8.8zm-1.19 28.83c-.77-3-.77-8.08 0-11.08l.97-3.81 2.69 4.8c1.38 2.47 1.38 6.64 0 9.11l-2.69 4.79-.97-3.81zm-3.12.79l1.8 7.09-3.58 6.39c-1.79 3.2-3.23 8.57-3.27 12.23l-.09 7.32-5.11 5.24c-2.56 2.63-5.34 7.44-6.33 10.97l-1.98 7.05-6.29 3.74c-3.15 1.87-7.08 5.81-8.96 8.96l-3.74 6.29-7.05 1.98c-3.53.99-8.35 3.77-10.97 6.33l-5.24 5.11-7.32.09c-3.67.04-9.04 1.48-12.24 3.28l-6.39 3.58-7.09-1.8c-3.55-.91-9.12-.91-12.67 0l-7.09 1.8-6.39-3.58c-3.2-1.79-8.57-3.24-12.24-3.28l-7.32-.09-5.24-5.11c-2.63-2.56-7.45-5.34-10.97-6.33l-7.05-1.98-3.74-6.29c-1.87-3.15-5.81-7.09-8.96-8.96l-6.29-3.74-1.99-7.05c-.99-3.53-3.78-8.35-6.33-10.97l-5.11-5.24-.09-7.32c-.04-3.66-1.48-9.04-3.27-12.23l-3.59-6.39 1.81-7.09c.91-3.55.91-9.12 0-12.67l-1.8-7.1 3.58-6.39c1.79-3.2 3.23-8.57 3.27-12.24l.09-7.32 5.11-5.24c2.56-2.62 5.34-7.44 6.34-10.97l1.99-7.05 6.29-3.74c3.15-1.87 7.09-5.81 8.96-8.96l3.74-6.29 7.05-1.98c3.53-.99 8.34-3.77 10.97-6.34l5.24-5.11 7.32-.09c3.67-.04 9.04-1.48 12.24-3.28l6.39-3.58 7.09 1.81c3.55.91 9.12.91 12.67 0l7.09-1.81 6.39 3.58c3.2 1.79 8.57 3.23 12.24 3.28l7.32.09 5.24 5.11c2.62 2.56 7.44 5.34 10.97 6.34l7.05 1.98 3.74 6.29c1.88 3.15 5.81 7.09 8.96 8.96l6.29 3.74 1.98 7.05c.99 3.53 3.78 8.35 6.33 10.97l5.11 5.24.09 7.32c.04 3.66 1.48 9.04 3.27 12.24l3.58 6.39-1.8 7.1c-.92 3.56-.92 9.12-.01 12.67zm4.31 16.96c.7 2.74-.38 6.78-2.36 8.8l-3.84 3.94.05-3.93c.03-3.1 1.35-8 2.86-10.7l1.92-3.43 1.37 5.32zm-9.58 26.25c-.04 2.83-2.12 6.44-4.56 7.89l-4.73 2.81 1.07-3.79c.84-2.98 3.38-7.37 5.54-9.59l2.74-2.81-.06 5.49zm-16.06 22.88c-.77 2.72-3.72 5.67-6.44 6.44l-5.29 1.49 2.01-3.38c1.59-2.67 5.17-6.25 7.83-7.83l3.38-2.01-1.49 5.29zm-29.32 22.5l-5.5.07 2.82-2.75c2.22-2.16 6.61-4.7 9.59-5.54l3.79-1.07-2.81 4.73c-1.45 2.44-5.06 4.53-7.89 4.56zm-26.26 9.59l-5.33-1.36 3.43-1.92c2.7-1.52 7.6-2.83 10.71-2.87l3.93-.05-3.94 3.84c-2.02 1.98-6.06 3.06-8.8 2.36zm-27.84 2.47l-4.8-2.69 3.81-.97c3.01-.76 8.08-.76 11.08 0l3.81.97-4.8 2.69c-2.46 1.38-6.63 1.38-9.1 0zm-27.53-4.83l-3.94-3.84 3.93.05c3.1.04 8 1.35 10.7 2.87l3.43 1.92-5.33 1.36c-2.74.7-6.77-.38-8.79-2.36zm-25.35-11.78l-2.81-4.73 3.79 1.07c2.98.83 7.37 3.37 9.59 5.54l2.81 2.75-5.5-.07c-2.82-.04-6.44-2.13-7.88-4.56zm-21.43-17.95l-1.49-5.3 3.38 2.01c2.67 1.58 6.25 5.17 7.83 7.83l2.01 3.38-5.3-1.49c-2.71-.75-5.66-3.7-6.43-6.43zm-6.78-12.18l-4.73-2.81c-2.43-1.45-4.52-5.06-4.55-7.89l-.07-5.5 2.75 2.81c2.16 2.22 4.7 6.61 5.54 9.59l1.06 3.8zm-18.87-36.95l1.36-5.33 1.92 3.43c1.52 2.7 2.83 7.6 2.87 10.7l.05 3.93-3.84-3.93c-1.98-2.03-3.06-6.06-2.36-8.8zm1.2-28.83c.76 3 .76 8.08 0 11.08l-.97 3.81-2.69-4.8c-1.38-2.47-1.38-6.64 0-9.11l2.69-4.8.97 3.82zm-1.2-17.75c-.7-2.74.38-6.77 2.36-8.8l3.84-3.94-.05 3.93c-.03 3.1-1.35 8-2.87 10.7l-1.92 3.43-1.36-5.32zm9.52-20.76l.07-5.5c.03-2.83 2.12-6.44 4.55-7.89l4.73-2.81-1.07 3.79c-.84 2.98-3.38 7.38-5.54 9.59l-2.74 2.82zm22.57-34.82l5.3-1.49-2.01 3.38c-1.58 2.66-5.17 6.25-7.83 7.83l-3.38 2.01 1.49-5.29c.76-2.72 3.71-5.67 6.43-6.44zm22.88-16.06l5.5-.07-2.81 2.75c-2.22 2.16-6.61 4.7-9.59 5.54l-3.79 1.07 2.81-4.73c1.43-2.43 5.05-4.52 7.88-4.56zm24.41-9.8c.65 0 1.27.07 1.84.21l5.33 1.36-3.43 1.92c-2.7 1.52-7.6 2.83-10.7 2.87l-3.93.05 3.94-3.84c1.6-1.56 4.47-2.57 6.95-2.57zm20.58-2.25c1.23-.69 2.9-1.04 4.56-1.04 1.66 0 3.32.35 4.56 1.04l4.79 2.69-3.81.97c-3.01.76-8.08.76-11.08 0l-3.81-.97 4.79-2.69zm27.84 2.47c2.74-.7 6.78.38 8.8 2.35l3.94 3.84-3.93-.05c-3.1-.04-8-1.35-10.71-2.87l-3.43-1.92 5.33-1.35zm26.26 9.58c2.83.04 6.45 2.12 7.89 4.55l2.81 4.73-3.79-1.07c-2.98-.84-7.37-3.37-9.59-5.54l-2.82-2.75 5.5.08zm22.88 16.06c2.72.76 5.67 3.72 6.44 6.44l1.49 5.29-3.38-2.01c-2.67-1.58-6.25-5.17-7.83-7.83l-2.01-3.38 5.29 1.49zm22.5 29.32l.06 5.5-2.74-2.82c-2.16-2.22-4.7-6.61-5.54-9.59l-1.07-3.79 4.73 2.81c2.43 1.45 4.52 5.06 4.56 7.89zm8.65 14.3l-5.32-5.46-.09-7.26 5.32 5.45.09 7.27zm-12.82-25.7l-6.38-3.79-1.98-7.03 6.38 3.79 1.98 7.03zm-26.02-23.43l-3.79-6.38 7.03 1.98 3.79 6.38-7.03-1.98zm-24.04-13.88l-5.46-5.32 7.26.09 5.45 5.32-7.25-.09zm-26.82-7.18l-6.87-3.85 7.08-1.8 6.87 3.85-7.08 1.8zm-27.76 0l-7.92-2.02 6.49-3.64 7.82 1.99c.03.01.07.01.11.02l-6.5 3.65zm-26.81 7.18l-8.5.1 5.47-5.33 8.06-.1c.15 0 .31-.02.45-.02l-5.48 5.35zm-24.05 13.88l-8.5 2.39 4.03-6.8 7.77-2.18c.24-.07.5-.17.75-.25l-4.05 6.84zm-19.63 19.64l-7.64 4.54c-.08.04-.15.1-.22.14.02-.05.04-.11.05-.15l2.19-7.77 6.93-4.12c.3-.18.62-.4.93-.61l-2.24 7.97zm-13.88 24.04l-6.2 6.36c-.14.14-.25.3-.38.45.01-.18.03-.38.03-.56l.1-8.07 5.63-5.77c.31-.31.62-.67.92-1.03l-.1 8.62zm-9.39 18.12c.01.03.01.05.01.08l2.19 8.61-4.35 7.75c-.13.23-.23.5-.35.76-.06-.31-.12-.62-.19-.91l-2-7.82 3.95-7.03c.26-.44.5-.92.74-1.44zm-2.68 30.08c.14-.55.25-1.15.35-1.77.07.13.11.28.19.41l4.35 7.75-2.19 8.61c-.08.32-.12.65-.17.99-.19-.39-.37-.78-.57-1.13l-3.95-7.04 1.99-7.82zm5.51 28.16c-.01-.59-.05-1.23-.13-1.9.16.19.31.4.47.57l6.21 6.36.11 8.89c.01.34.04.69.08 1.04-.34-.4-.67-.78-1.01-1.13l-5.63-5.77-.1-8.06zm12.63 25.78c-.16-.56-.36-1.14-.59-1.75.25.19.51.36.76.51l7.64 4.54 2.4 8.55c.09.33.21.65.35.98-.49-.35-.98-.68-1.44-.95l-6.93-4.12-2.19-7.76zm42.6 36.71l8.89.11 6.36 6.2c.17.17.37.32.55.47-.66-.07-1.29-.12-1.88-.13l-8.06-.1-5.78-5.63c-.34-.34-.72-.67-1.12-1.01.34.05.69.08 1.04.09zm27.09 9.48l8.61-2.19 7.75 4.35c.13.07.27.12.41.19-.62.1-1.22.21-1.77.35l-7.82 1.99-7.04-3.95c-.35-.19-.73-.38-1.11-.56.33-.05.66-.1.97-.18zm28.62 2.16l7.75-4.35 8.61 2.19c.03.01.06.01.08.02-.51.23-1 .48-1.44.73l-7.04 3.95-7.81-1.99c-.29-.07-.61-.13-.91-.19.26-.13.52-.23.76-.36zm28.21-5.33l6.36-6.2 8.62-.11c-.37.31-.72.62-1.04.93l-5.77 5.63-8.07.1c-.18 0-.37.03-.56.03.16-.13.32-.25.46-.38zm50.04-39.72l6.83-4.06c-.08.25-.18.51-.25.75l-2.18 7.77-6.8 4.03 2.4-8.49zm13.88-24.04l5.35-5.49c-.01.15-.02.31-.02.45l-.1 8.07-5.33 5.47.1-8.5zm9.2-18.9l-2.02-7.92 3.64-6.49c.01.04.02.08.02.11l1.99 7.82-3.63 6.48zm1.84-28.81l-3.85-6.87 1.81-7.08 3.85 6.87-1.81 7.08zm-11-55.32c2.7 1.6 5.02 5.61 5.06 8.75l.08 6.39-3.27-3.35c-2.38-2.44-5.17-7.27-6.09-10.56l-1.27-4.51 5.49 3.28zm-19.66-23.46c3.02.85 6.3 4.13 7.15 7.15l1.73 6.15-4.03-2.39c-2.93-1.74-6.88-5.69-8.62-8.62l-2.39-4.02 6.16 1.73zm-25.06-17.56c3.14.04 7.15 2.35 8.76 5.05l3.26 5.5-4.51-1.27c-3.28-.92-8.11-3.71-10.55-6.09l-3.35-3.27 6.39.08zm-28.76-10.48c3.05-.77 7.52.42 9.77 2.62l4.57 4.46-4.68-.06c-3.41-.04-8.8-1.49-11.77-3.16l-4.08-2.29 6.19-1.57zm-30.48-2.69c2.74-1.54 7.37-1.54 10.11 0l5.58 3.13-4.54 1.15c-3.3.84-8.88.84-12.19 0L1760.87 8l5.58-3.13zm-30.14 5.3c2.25-2.19 6.72-3.39 9.76-2.62l6.19 1.58-4.08 2.29c-2.97 1.67-8.36 3.11-11.77 3.15l-4.68.06 4.58-4.46zm-27.75 12.92c1.6-2.7 5.61-5.01 8.75-5.05l6.39-.08-3.35 3.27c-2.44 2.38-7.27 5.17-10.56 6.09l-4.51 1.27 3.28-5.5zm-23.45 19.66c.85-3.02 4.12-6.3 7.15-7.15l6.15-1.73-2.39 4.02c-1.74 2.93-5.69 6.88-8.62 8.62l-4.02 2.39 1.73-6.15zm-17.57 25.06c.04-3.14 2.35-7.15 5.05-8.75l5.5-3.27-1.27 4.51c-.93 3.28-3.72 8.12-6.1 10.56l-3.27 3.35.09-6.4zm-10.48 28.76c-.77-3.04.43-7.52 2.62-9.77l4.47-4.58-.06 4.68c-.04 3.41-1.49 8.8-3.16 11.77l-2.29 4.08-1.58-6.18zm-2.68 30.48c-1.53-2.74-1.53-7.37 0-10.11l3.13-5.58 1.16 4.54c.84 3.3.84 8.89 0 12.19l-1.16 4.54-3.13-5.58zm5.3 30.14c-2.19-2.25-3.39-6.72-2.62-9.76l1.58-6.19 2.29 4.08c1.67 2.97 3.11 8.36 3.16 11.77l.06 4.68-4.47-4.58zm12.91 27.75c-2.7-1.6-5.01-5.61-5.05-8.75l-.08-6.39 3.27 3.35c2.38 2.44 5.17 7.27 6.1 10.56l1.27 4.51-5.51-3.28zm19.67 23.45c-3.02-.85-6.3-4.12-7.15-7.14l-1.73-6.15 4.02 2.39c2.93 1.74 6.88 5.69 8.62 8.62l2.39 4.02-6.15-1.74zm25.06 17.57c-3.14-.04-7.15-2.35-8.75-5.05l-3.27-5.5 4.51 1.27c3.28.92 8.11 3.72 10.56 6.1l3.35 3.26-6.4-.08zm28.75 10.48c-3.05.77-7.52-.43-9.76-2.62l-4.58-4.46 4.68.06c3.41.04 8.8 1.48 11.77 3.16l4.08 2.29-6.19 1.57zm30.49 2.68c-2.74 1.54-7.37 1.54-10.11 0l-5.58-3.13 4.54-1.15c3.31-.84 8.89-.84 12.19 0l4.53 1.15-5.57 3.13zm30.14-5.3c-2.25 2.19-6.73 3.4-9.77 2.62l-6.2-1.58 4.08-2.29c2.97-1.67 8.37-3.11 11.77-3.16l4.68-.06-4.56 4.47zm27.74-12.92c-1.61 2.7-5.62 5.02-8.76 5.06l-6.39.07 3.35-3.26c2.44-2.38 7.28-5.17 10.55-6.1l4.51-1.27-3.26 5.5zm23.46-19.65c-.85 3.02-4.13 6.3-7.15 7.14l-6.15 1.73 2.39-4.02c1.74-2.93 5.69-6.88 8.62-8.62l4.03-2.39-1.74 6.16zm17.56-25.07c-.04 3.14-2.35 7.15-5.06 8.75l-5.49 3.27 1.27-4.51c.92-3.28 3.71-8.12 6.09-10.56l3.27-3.35-.08 6.4zm10.48-28.75c.78 3.04-.42 7.52-2.62 9.76l-4.46 4.58.06-4.68c.04-3.41 1.48-8.8 3.15-11.77l2.29-4.08 1.58 6.19zm2.68-20.38l-3.13 5.57-1.15-4.53c-.84-3.3-.84-8.88 0-12.19l1.15-4.54 3.13 5.58c1.55 2.74 1.55 7.37 0 10.11zM2012.88.5c2.36 0 4.27 1.89 4.27 4.22s-1.91 4.22-4.27 4.22c-2.36 0-4.27-1.89-4.27-4.22s1.91-4.22 4.27-4.22zm33.16 0c2.25 0 4.08 1.89 4.08 4.22s-1.83 4.22-4.08 4.22-4.08-1.89-4.08-4.22 1.82-4.22 4.08-4.22zm-16.17 0c2.22 0 4.01 1.89 4.01 4.22s-1.8 4.22-4.01 4.22c-2.22 0-4.01-1.89-4.01-4.22s1.8-4.22 4.01-4.22zm50.14 0c2.25 0 4.08 1.89 4.08 4.22s-1.83 4.22-4.08 4.22-4.08-1.89-4.08-4.22 1.82-4.22 4.08-4.22zm-16.99 0c2.32 0 4.21 1.89 4.21 4.22s-1.89 4.22-4.21 4.22-4.2-1.89-4.2-4.22 1.88-4.22 4.2-4.22zm-83.35 15.77c2.35 0 4.25 1.91 4.25 4.26 0 2.35-1.91 4.27-4.25 4.27-2.35 0-4.25-1.91-4.25-4.27 0-2.35 1.9-4.26 4.25-4.26zm67.44 0c2.35 0 4.25 1.91 4.25 4.26 0 2.35-1.91 4.27-4.25 4.27-2.35 0-4.25-1.91-4.25-4.27a4.249 4.249 0 014.25-4.26zm-17.62 0c2.35 0 4.25 1.91 4.25 4.26 0 2.35-1.91 4.27-4.25 4.27-2.35 0-4.25-1.91-4.25-4.27 0-2.35 1.9-4.26 4.25-4.26zm-16.4 0c2.35 0 4.25 1.91 4.25 4.26 0 2.35-1.9 4.27-4.25 4.27s-4.25-1.91-4.25-4.27a4.242 4.242 0 014.25-4.26zm-16.41 0c2.35 0 4.25 1.91 4.25 4.26 0 2.35-1.91 4.27-4.25 4.27-2.35 0-4.25-1.91-4.25-4.27 0-2.35 1.9-4.26 4.25-4.26zm83.23 0c2.35 0 4.25 1.91 4.25 4.26 0 2.35-1.91 4.27-4.25 4.27-2.35 0-4.25-1.91-4.25-4.27 0-2.35 1.9-4.26 4.25-4.26zm-16.4 0c2.35 0 4.25 1.91 4.25 4.26 0 2.35-1.91 4.27-4.25 4.27-2.35 0-4.25-1.91-4.25-4.27 0-2.35 1.9-4.26 4.25-4.26zm50.42 0c2.35 0 4.25 1.91 4.25 4.26 0 2.35-1.91 4.27-4.25 4.27-2.35 0-4.25-1.91-4.25-4.27 0-2.35 1.9-4.26 4.25-4.26zm-17.62 0c2.35 0 4.25 1.91 4.25 4.26 0 2.35-1.91 4.27-4.25 4.27-2.35 0-4.25-1.91-4.25-4.27 0-2.35 1.9-4.26 4.25-4.26zm-99.63 17.67c2.35 0 4.25 1.91 4.25 4.26 0 2.35-1.91 4.26-4.25 4.26-2.35 0-4.25-1.91-4.25-4.26 0-2.35 1.9-4.26 4.25-4.26zm-34.02 0c2.35 0 4.25 1.91 4.25 4.26 0 2.35-1.9 4.26-4.25 4.26s-4.25-1.91-4.25-4.26c0-2.35 1.9-4.26 4.25-4.26zm100.85 0c2.35 0 4.25 1.91 4.25 4.26 0 2.35-1.91 4.26-4.25 4.26-2.35 0-4.25-1.91-4.25-4.26 0-2.35 1.9-4.26 4.25-4.26zm66.82 0c2.35 0 4.25 1.91 4.25 4.26 0 2.35-1.91 4.26-4.25 4.26-2.35 0-4.25-1.91-4.25-4.26 0-2.35 1.91-4.26 4.25-4.26zm-16.4 0c2.35 0 4.25 1.91 4.25 4.26 0 2.35-1.91 4.26-4.25 4.26-2.35 0-4.25-1.91-4.25-4.26 0-2.35 1.9-4.26 4.25-4.26zm-34.02 0c2.35 0 4.25 1.91 4.25 4.26 0 2.35-1.91 4.26-4.25 4.26-2.35 0-4.25-1.91-4.25-4.26 0-2.35 1.9-4.26 4.25-4.26zm16.4 0c2.35 0 4.25 1.91 4.25 4.26 0 2.35-1.91 4.26-4.25 4.26-2.35 0-4.25-1.91-4.25-4.26 0-2.35 1.9-4.26 4.25-4.26zm-66.82 0c2.35 0 4.25 1.91 4.25 4.26 0 2.35-1.91 4.26-4.25 4.26-2.35 0-4.25-1.91-4.25-4.26 0-2.35 1.9-4.26 4.25-4.26zm17.62 0c2.35 0 4.25 1.91 4.25 4.26 0 2.35-1.91 4.26-4.25 4.26-2.35 0-4.25-1.91-4.25-4.26a4.249 4.249 0 014.25-4.26zm-34.02 0c2.35 0 4.25 1.91 4.25 4.26 0 2.35-1.9 4.26-4.25 4.26s-4.25-1.91-4.25-4.26a4.242 4.242 0 014.25-4.26zm-33.42 0c2.35 0 4.25 1.91 4.25 4.26 0 2.35-1.91 4.26-4.25 4.26-2.35 0-4.25-1.91-4.25-4.26 0-2.35 1.9-4.26 4.25-4.26zm0 16.44c2.35 0 4.25 1.91 4.25 4.26 0 2.35-1.91 4.26-4.25 4.26-2.35 0-4.25-1.91-4.25-4.26 0-2.35 1.9-4.26 4.25-4.26zm49.82 0c2.35 0 4.25 1.91 4.25 4.26 0 2.35-1.91 4.26-4.25 4.26-2.35 0-4.25-1.91-4.25-4.26 0-2.35 1.9-4.26 4.25-4.26zm-32.81 0c2.35 0 4.25 1.91 4.25 4.26 0 2.35-1.91 4.26-4.25 4.26-2.35 0-4.25-1.91-4.25-4.26 0-2.35 1.9-4.26 4.25-4.26zm83.23 0c2.35 0 4.25 1.91 4.25 4.26 0 2.35-1.91 4.26-4.25 4.26-2.35 0-4.25-1.91-4.25-4.26 0-2.35 1.9-4.26 4.25-4.26zm67.43 0c2.35 0 4.25 1.91 4.25 4.26 0 2.35-1.9 4.26-4.25 4.26s-4.25-1.91-4.25-4.26c0-2.35 1.91-4.26 4.25-4.26zm-201.68 0c2.35 0 4.25 1.91 4.25 4.26 0 2.35-1.9 4.26-4.25 4.26s-4.25-1.91-4.25-4.26a4.249 4.249 0 014.25-4.26zm168.27 0c2.35 0 4.25 1.91 4.25 4.26 0 2.35-1.91 4.26-4.25 4.26-2.35 0-4.25-1.91-4.25-4.26 0-2.35 1.9-4.26 4.25-4.26zm-100.84 0c2.35 0 4.25 1.91 4.25 4.26 0 2.35-1.9 4.26-4.25 4.26s-4.25-1.91-4.25-4.26a4.242 4.242 0 014.25-4.26zm34.02 0c2.35 0 4.25 1.91 4.25 4.26 0 2.35-1.91 4.26-4.25 4.26-2.35 0-4.25-1.91-4.25-4.26a4.249 4.249 0 014.25-4.26zm49.2 0c2.35 0 4.25 1.91 4.25 4.26 0 2.35-1.91 4.26-4.25 4.26-2.35 0-4.25-1.91-4.25-4.26 0-2.35 1.9-4.26 4.25-4.26zm34.02 0c2.35 0 4.25 1.91 4.25 4.26 0 2.35-1.91 4.26-4.25 4.26-2.35 0-4.25-1.91-4.25-4.26 0-2.35 1.91-4.26 4.25-4.26zm-167.67 0c2.35 0 4.25 1.91 4.25 4.26 0 2.35-1.9 4.26-4.25 4.26s-4.25-1.91-4.25-4.26c0-2.35 1.9-4.26 4.25-4.26zm100.85 0c2.35 0 4.25 1.91 4.25 4.26 0 2.35-1.91 4.26-4.25 4.26-2.35 0-4.25-1.91-4.25-4.26 0-2.35 1.9-4.26 4.25-4.26zm-100.85 17.06c2.35 0 4.25 1.91 4.25 4.27 0 2.35-1.9 4.26-4.25 4.26s-4.25-1.91-4.25-4.26c0-2.36 1.9-4.27 4.25-4.27zm100.85 0c2.35 0 4.25 1.91 4.25 4.27 0 2.35-1.91 4.26-4.25 4.26-2.35 0-4.25-1.91-4.25-4.26 0-2.36 1.9-4.27 4.25-4.27zm-50.42 0c2.35 0 4.25 1.91 4.25 4.27 0 2.35-1.9 4.26-4.25 4.26s-4.25-1.91-4.25-4.26a4.244 4.244 0 014.25-4.27zm66.82 0c2.35 0 4.25 1.91 4.25 4.27 0 2.35-1.91 4.26-4.25 4.26-2.35 0-4.25-1.91-4.25-4.26 0-2.36 1.9-4.27 4.25-4.27zm16.4 0c2.35 0 4.25 1.91 4.25 4.27 0 2.35-1.91 4.26-4.25 4.26-2.35 0-4.25-1.91-4.25-4.26 0-2.36 1.9-4.27 4.25-4.27zm-116.64 0c2.35 0 4.25 1.91 4.25 4.27 0 2.35-1.91 4.26-4.25 4.26-2.35 0-4.25-1.91-4.25-4.26 0-2.36 1.9-4.27 4.25-4.27zm17.01 0c2.35 0 4.25 1.91 4.25 4.27 0 2.35-1.91 4.26-4.25 4.26-2.35 0-4.25-1.91-4.25-4.26 0-2.36 1.9-4.27 4.25-4.27zm32.81 0c2.35 0 4.25 1.91 4.25 4.27 0 2.35-1.91 4.26-4.25 4.26-2.35 0-4.25-1.91-4.25-4.26 0-2.36 1.9-4.27 4.25-4.27zm17.62 0c2.35 0 4.25 1.91 4.25 4.27 0 2.35-1.91 4.26-4.25 4.26-2.35 0-4.25-1.91-4.25-4.26a4.25 4.25 0 014.25-4.27zm83.22 0c2.35 0 4.25 1.91 4.25 4.27 0 2.35-1.91 4.26-4.25 4.26-2.35 0-4.25-1.91-4.25-4.26 0-2.36 1.91-4.27 4.25-4.27zm-184.67 0c2.35 0 4.25 1.91 4.25 4.27 0 2.35-1.9 4.26-4.25 4.26s-4.25-1.91-4.25-4.26a4.25 4.25 0 014.25-4.27zm201.68 0c2.35 0 4.25 1.91 4.25 4.27 0 2.35-1.9 4.26-4.25 4.26s-4.25-1.91-4.25-4.26c0-2.36 1.91-4.27 4.25-4.27zm-33.41 0c2.35 0 4.25 1.91 4.25 4.27 0 2.35-1.91 4.26-4.25 4.26-2.35 0-4.25-1.91-4.25-4.26 0-2.36 1.9-4.27 4.25-4.27zm-100.84 16.45c2.35 0 4.25 1.91 4.25 4.26 0 2.35-1.9 4.27-4.25 4.27s-4.25-1.91-4.25-4.27a4.242 4.242 0 014.25-4.26zm-50.43 0c2.35 0 4.25 1.91 4.25 4.26 0 2.35-1.9 4.27-4.25 4.27s-4.25-1.91-4.25-4.27c0-2.35 1.9-4.26 4.25-4.26zm167.67 0c2.35 0 4.25 1.91 4.25 4.26 0 2.35-1.91 4.27-4.25 4.27-2.35 0-4.25-1.91-4.25-4.27 0-2.35 1.91-4.26 4.25-4.26zm17.01 0c2.35 0 4.25 1.91 4.25 4.26 0 2.35-1.9 4.27-4.25 4.27s-4.25-1.91-4.25-4.27c0-2.35 1.91-4.26 4.25-4.26zm-83.83 0c2.35 0 4.25 1.91 4.25 4.26 0 2.35-1.91 4.27-4.25 4.27-2.35 0-4.25-1.91-4.25-4.27 0-2.35 1.9-4.26 4.25-4.26zm-34.02 0c2.35 0 4.25 1.91 4.25 4.26 0 2.35-1.91 4.27-4.25 4.27-2.35 0-4.25-1.91-4.25-4.27 0-2.35 1.9-4.26 4.25-4.26zm50.42 0c2.35 0 4.25 1.91 4.25 4.26 0 2.35-1.91 4.27-4.25 4.27-2.35 0-4.25-1.91-4.25-4.27 0-2.35 1.9-4.26 4.25-4.26zm16.4 0c2.35 0 4.25 1.91 4.25 4.26 0 2.35-1.91 4.27-4.25 4.27-2.35 0-4.25-1.91-4.25-4.27 0-2.35 1.9-4.26 4.25-4.26zm-49.2 0c2.35 0 4.25 1.91 4.25 4.26 0 2.35-1.91 4.27-4.25 4.27-2.35 0-4.25-1.91-4.25-4.27a4.249 4.249 0 014.25-4.26zm116.64 0c2.35 0 4.25 1.91 4.25 4.26 0 2.35-1.9 4.27-4.25 4.27s-4.25-1.91-4.25-4.27c0-2.35 1.9-4.26 4.25-4.26zm-49.82 0c2.35 0 4.25 1.91 4.25 4.26 0 2.35-1.91 4.27-4.25 4.27-2.35 0-4.25-1.91-4.25-4.27 0-2.35 1.9-4.26 4.25-4.26zm-184.68 0c2.35 0 4.25 1.91 4.25 4.26 0 2.35-1.9 4.27-4.25 4.27s-4.25-1.91-4.25-4.27c0-2.35 1.91-4.26 4.25-4.26zm67.43 0c2.35 0 4.25 1.91 4.25 4.26 0 2.35-1.91 4.27-4.25 4.27-2.35 0-4.25-1.91-4.25-4.27 0-2.35 1.9-4.26 4.25-4.26zm-51.02 0c2.35 0 4.25 1.91 4.25 4.26 0 2.35-1.9 4.27-4.25 4.27s-4.25-1.91-4.25-4.27a4.249 4.249 0 014.25-4.26zm34.01 0c2.35 0 4.25 1.91 4.25 4.26 0 2.35-1.91 4.27-4.25 4.27-2.35 0-4.25-1.91-4.25-4.27 0-2.35 1.9-4.26 4.25-4.26zm167.67 16.45c2.35 0 4.25 1.91 4.25 4.26 0 2.35-1.9 4.27-4.25 4.27s-4.25-1.91-4.25-4.27c0-2.35 1.91-4.26 4.25-4.26zm-201.68 0c2.35 0 4.25 1.91 4.25 4.26 0 2.35-1.9 4.27-4.25 4.27s-4.25-1.91-4.25-4.27a4.249 4.249 0 014.25-4.26zm134.25 0c2.35 0 4.25 1.91 4.25 4.26 0 2.35-1.91 4.27-4.25 4.27-2.35 0-4.25-1.91-4.25-4.27 0-2.35 1.9-4.26 4.25-4.26zm-150.66 0c2.35 0 4.25 1.91 4.25 4.26 0 2.35-1.9 4.27-4.25 4.27s-4.25-1.91-4.25-4.27c0-2.35 1.91-4.26 4.25-4.26zm33.41 0c2.35 0 4.25 1.91 4.25 4.26 0 2.35-1.9 4.27-4.25 4.27s-4.25-1.91-4.25-4.27c0-2.35 1.9-4.26 4.25-4.26zm66.83 0c2.35 0 4.25 1.91 4.25 4.26 0 2.35-1.91 4.27-4.25 4.27-2.35 0-4.25-1.91-4.25-4.27 0-2.35 1.9-4.26 4.25-4.26zm34.02 0c2.35 0 4.25 1.91 4.25 4.26 0 2.35-1.91 4.27-4.25 4.27-2.35 0-4.25-1.91-4.25-4.27 0-2.35 1.9-4.26 4.25-4.26zm100.24 0c2.35 0 4.25 1.91 4.25 4.26 0 2.35-1.9 4.27-4.25 4.27s-4.25-1.91-4.25-4.27c0-2.35 1.9-4.26 4.25-4.26zm-33.42 0c2.35 0 4.25 1.91 4.25 4.26 0 2.35-1.91 4.27-4.25 4.27-2.35 0-4.25-1.91-4.25-4.27 0-2.35 1.91-4.26 4.25-4.26zm-117.24 0c2.35 0 4.25 1.91 4.25 4.26 0 2.35-1.9 4.27-4.25 4.27s-4.25-1.91-4.25-4.27a4.242 4.242 0 014.25-4.26zm-33.42 0c2.35 0 4.25 1.91 4.25 4.26 0 2.35-1.91 4.27-4.25 4.27-2.35 0-4.25-1.91-4.25-4.27 0-2.35 1.9-4.26 4.25-4.26zm116.64 0c2.35 0 4.25 1.91 4.25 4.26 0 2.35-1.91 4.27-4.25 4.27-2.35 0-4.25-1.91-4.25-4.27 0-2.35 1.9-4.26 4.25-4.26zm-49.2 0c2.35 0 4.25 1.91 4.25 4.26 0 2.35-1.91 4.27-4.25 4.27-2.35 0-4.25-1.91-4.25-4.27a4.249 4.249 0 014.25-4.26zm66.82 0c2.35 0 4.25 1.91 4.25 4.26 0 2.35-1.91 4.27-4.25 4.27-2.35 0-4.25-1.91-4.25-4.27 0-2.35 1.9-4.26 4.25-4.26zm-117.25 0c2.35 0 4.25 1.91 4.25 4.26 0 2.35-1.91 4.27-4.25 4.27-2.35 0-4.25-1.91-4.25-4.27 0-2.35 1.9-4.26 4.25-4.26zm50.43 17.66c2.35 0 4.25 1.91 4.25 4.26 0 2.35-1.91 4.26-4.25 4.26-2.35 0-4.25-1.91-4.25-4.26a4.249 4.249 0 014.25-4.26zm-34.02 0c2.35 0 4.25 1.91 4.25 4.26 0 2.35-1.9 4.26-4.25 4.26s-4.25-1.91-4.25-4.26a4.242 4.242 0 014.25-4.26zm83.22 0c2.35 0 4.25 1.91 4.25 4.26 0 2.35-1.91 4.26-4.25 4.26-2.35 0-4.25-1.91-4.25-4.26 0-2.35 1.9-4.26 4.25-4.26zm-150.65 0c2.35 0 4.25 1.91 4.25 4.26 0 2.35-1.9 4.26-4.25 4.26s-4.25-1.91-4.25-4.26a4.249 4.249 0 014.25-4.26zm117.85 0c2.35 0 4.25 1.91 4.25 4.26 0 2.35-1.91 4.26-4.25 4.26-2.35 0-4.25-1.91-4.25-4.26 0-2.35 1.9-4.26 4.25-4.26zm50.42 0c2.35 0 4.25 1.91 4.25 4.26 0 2.35-1.91 4.26-4.25 4.26-2.35 0-4.25-1.91-4.25-4.26 0-2.35 1.9-4.26 4.25-4.26zm16.4 0c2.35 0 4.25 1.91 4.25 4.26 0 2.35-1.91 4.26-4.25 4.26-2.35 0-4.25-1.91-4.25-4.26 0-2.35 1.91-4.26 4.25-4.26zm-201.08 0c2.35 0 4.25 1.91 4.25 4.26 0 2.35-1.9 4.26-4.25 4.26s-4.25-1.91-4.25-4.26c0-2.35 1.91-4.26 4.25-4.26zm33.41 0c2.35 0 4.25 1.91 4.25 4.26 0 2.35-1.9 4.26-4.25 4.26s-4.25-1.91-4.25-4.26c0-2.35 1.9-4.26 4.25-4.26zm184.68 0c2.35 0 4.25 1.91 4.25 4.26 0 2.35-1.9 4.26-4.25 4.26s-4.25-1.91-4.25-4.26c0-2.35 1.91-4.26 4.25-4.26zm-150.66 0c2.35 0 4.25 1.91 4.25 4.26 0 2.35-1.91 4.26-4.25 4.26-2.35 0-4.25-1.91-4.25-4.26 0-2.35 1.9-4.26 4.25-4.26zm167.07 0c2.35 0 4.25 1.91 4.25 4.26 0 2.35-1.9 4.26-4.25 4.26s-4.25-1.91-4.25-4.26c0-2.35 1.9-4.26 4.25-4.26zm-83.84 0c2.35 0 4.25 1.91 4.25 4.26 0 2.35-1.91 4.26-4.25 4.26-2.35 0-4.25-1.91-4.25-4.26 0-2.35 1.9-4.26 4.25-4.26zm-100.24 0c2.35 0 4.25 1.91 4.25 4.26 0 2.35-1.91 4.26-4.25 4.26-2.35 0-4.25-1.91-4.25-4.26 0-2.35 1.9-4.26 4.25-4.26zm49.82 0c2.35 0 4.25 1.91 4.25 4.26 0 2.35-1.91 4.26-4.25 4.26-2.35 0-4.25-1.91-4.25-4.26 0-2.35 1.9-4.26 4.25-4.26zm-83.83 16.45c2.35 0 4.25 1.91 4.25 4.27 0 2.35-1.9 4.26-4.25 4.26s-4.25-1.91-4.25-4.26a4.25 4.25 0 014.25-4.27zm-16.41 0c2.35 0 4.25 1.91 4.25 4.27 0 2.35-1.9 4.26-4.25 4.26s-4.25-1.91-4.25-4.26c0-2.36 1.91-4.27 4.25-4.27zm33.41 0c2.35 0 4.25 1.91 4.25 4.27 0 2.35-1.9 4.26-4.25 4.26s-4.25-1.91-4.25-4.26c0-2.36 1.9-4.27 4.25-4.27zm184.68 0c2.35 0 4.25 1.91 4.25 4.27 0 2.35-1.9 4.26-4.25 4.26s-4.25-1.91-4.25-4.26c0-2.36 1.91-4.27 4.25-4.27zm-67.43 0c2.35 0 4.25 1.91 4.25 4.27 0 2.35-1.91 4.26-4.25 4.26-2.35 0-4.25-1.91-4.25-4.26 0-2.36 1.9-4.27 4.25-4.27zm34.02 0c2.35 0 4.25 1.91 4.25 4.27 0 2.35-1.91 4.26-4.25 4.26-2.35 0-4.25-1.91-4.25-4.26 0-2.36 1.9-4.27 4.25-4.27zm-50.42 0c2.35 0 4.25 1.91 4.25 4.27 0 2.35-1.91 4.26-4.25 4.26-2.35 0-4.25-1.91-4.25-4.26 0-2.36 1.9-4.27 4.25-4.27zm-34.02 0c2.35 0 4.25 1.91 4.25 4.27 0 2.35-1.91 4.26-4.25 4.26-2.35 0-4.25-1.91-4.25-4.26 0-2.36 1.9-4.27 4.25-4.27zm134.26 0c2.35 0 4.25 1.91 4.25 4.27 0 2.35-1.9 4.26-4.25 4.26s-4.25-1.91-4.25-4.26c0-2.36 1.9-4.27 4.25-4.27zm-150.66 0c2.35 0 4.25 1.91 4.25 4.27 0 2.35-1.9 4.26-4.25 4.26s-4.25-1.91-4.25-4.26a4.244 4.244 0 014.25-4.27zm34.02 0c2.35 0 4.25 1.91 4.25 4.27 0 2.35-1.91 4.26-4.25 4.26-2.35 0-4.25-1.91-4.25-4.26a4.25 4.25 0 014.25-4.27zm83.22 0c2.35 0 4.25 1.91 4.25 4.27 0 2.35-1.91 4.26-4.25 4.26-2.35 0-4.25-1.91-4.25-4.26 0-2.36 1.91-4.27 4.25-4.27zm-150.66 0c2.35 0 4.25 1.91 4.25 4.27 0 2.35-1.91 4.26-4.25 4.26-2.35 0-4.25-1.91-4.25-4.26 0-2.36 1.9-4.27 4.25-4.27zm116.64 0c2.35 0 4.25 1.91 4.25 4.27 0 2.35-1.91 4.26-4.25 4.26-2.35 0-4.25-1.91-4.25-4.26 0-2.36 1.9-4.27 4.25-4.27zm-99.63 0c2.35 0 4.25 1.91 4.25 4.27 0 2.35-1.91 4.26-4.25 4.26-2.35 0-4.25-1.91-4.25-4.26 0-2.36 1.9-4.27 4.25-4.27zm66.83 16.45c2.35 0 4.25 1.91 4.25 4.27 0 2.35-1.91 4.26-4.25 4.26-2.35 0-4.25-1.91-4.25-4.26 0-2.36 1.9-4.27 4.25-4.27zm-66.83 0c2.35 0 4.25 1.91 4.25 4.27 0 2.35-1.91 4.26-4.25 4.26-2.35 0-4.25-1.91-4.25-4.26 0-2.36 1.9-4.27 4.25-4.27zm-67.43 0c2.35 0 4.25 1.91 4.25 4.27 0 2.35-1.9 4.26-4.25 4.26s-4.25-1.91-4.25-4.26c0-2.36 1.91-4.27 4.25-4.27zm16.41 0c2.35 0 4.25 1.91 4.25 4.27 0 2.35-1.9 4.26-4.25 4.26s-4.25-1.91-4.25-4.26a4.25 4.25 0 014.25-4.27zm17 0c2.35 0 4.25 1.91 4.25 4.27 0 2.35-1.9 4.26-4.25 4.26s-4.25-1.91-4.25-4.26c0-2.36 1.9-4.27 4.25-4.27zm184.68 0c2.35 0 4.25 1.91 4.25 4.27 0 2.35-1.9 4.26-4.25 4.26s-4.25-1.91-4.25-4.26c0-2.36 1.91-4.27 4.25-4.27zm-17.01 0c2.35 0 4.25 1.91 4.25 4.27 0 2.35-1.91 4.26-4.25 4.26-2.35 0-4.25-1.91-4.25-4.26 0-2.36 1.91-4.27 4.25-4.27zm-83.22 0c2.35 0 4.25 1.91 4.25 4.27 0 2.35-1.91 4.26-4.25 4.26-2.35 0-4.25-1.91-4.25-4.26a4.25 4.25 0 014.25-4.27zm-34.02 0c2.35 0 4.25 1.91 4.25 4.27 0 2.35-1.9 4.26-4.25 4.26s-4.25-1.91-4.25-4.26a4.244 4.244 0 014.25-4.27zm83.22 0c2.35 0 4.25 1.91 4.25 4.27 0 2.35-1.91 4.26-4.25 4.26-2.35 0-4.25-1.91-4.25-4.26 0-2.36 1.9-4.27 4.25-4.27zm67.44 0c2.35 0 4.25 1.91 4.25 4.27 0 2.35-1.9 4.26-4.25 4.26s-4.25-1.91-4.25-4.26c0-2.36 1.9-4.27 4.25-4.27zm-49.82 0c2.35 0 4.25 1.91 4.25 4.27 0 2.35-1.91 4.26-4.25 4.26-2.35 0-4.25-1.91-4.25-4.26 0-2.36 1.9-4.27 4.25-4.27zm-134.26 0c2.35 0 4.25 1.91 4.25 4.27 0 2.35-1.91 4.26-4.25 4.26-2.35 0-4.25-1.91-4.25-4.26 0-2.36 1.9-4.27 4.25-4.27zm49.82 0c2.35 0 4.25 1.91 4.25 4.27 0 2.35-1.91 4.26-4.25 4.26-2.35 0-4.25-1.91-4.25-4.26 0-2.36 1.9-4.27 4.25-4.27zm50.42 0c2.35 0 4.25 1.91 4.25 4.27 0 2.35-1.91 4.26-4.25 4.26-2.35 0-4.25-1.91-4.25-4.26 0-2.36 1.9-4.27 4.25-4.27zm0 16.45c2.35 0 4.25 1.91 4.25 4.26 0 2.35-1.91 4.27-4.25 4.27-2.35 0-4.25-1.91-4.25-4.27 0-2.35 1.9-4.26 4.25-4.26zm-134.25 0c2.35 0 4.25 1.91 4.25 4.26 0 2.35-1.9 4.27-4.25 4.27s-4.25-1.91-4.25-4.27a4.249 4.249 0 014.25-4.26zm201.68 0c2.35 0 4.25 1.91 4.25 4.26 0 2.35-1.9 4.27-4.25 4.27s-4.25-1.91-4.25-4.27c0-2.35 1.91-4.26 4.25-4.26zm-134.25 0c2.35 0 4.25 1.91 4.25 4.26 0 2.35-1.9 4.27-4.25 4.27s-4.25-1.91-4.25-4.27a4.242 4.242 0 014.25-4.26zm100.84 0c2.35 0 4.25 1.91 4.25 4.26 0 2.35-1.91 4.27-4.25 4.27-2.35 0-4.25-1.91-4.25-4.27 0-2.35 1.9-4.26 4.25-4.26zm-134.26 0c2.35 0 4.25 1.91 4.25 4.26 0 2.35-1.91 4.27-4.25 4.27-2.35 0-4.25-1.91-4.25-4.27 0-2.35 1.9-4.26 4.25-4.26zm67.44 0c2.35 0 4.25 1.91 4.25 4.26 0 2.35-1.91 4.27-4.25 4.27-2.35 0-4.25-1.91-4.25-4.27a4.249 4.249 0 014.25-4.26zm-50.43 0c2.35 0 4.25 1.91 4.25 4.26 0 2.35-1.91 4.27-4.25 4.27-2.35 0-4.25-1.91-4.25-4.27 0-2.35 1.9-4.26 4.25-4.26zm-34.02 0c2.35 0 4.25 1.91 4.25 4.26 0 2.35-1.9 4.27-4.25 4.27s-4.25-1.91-4.25-4.27c0-2.35 1.9-4.26 4.25-4.26zm100.85 0c2.35 0 4.25 1.91 4.25 4.26 0 2.35-1.91 4.27-4.25 4.27-2.35 0-4.25-1.91-4.25-4.27 0-2.35 1.9-4.26 4.25-4.26zm-34.02 0c2.35 0 4.25 1.91 4.25 4.26 0 2.35-1.91 4.27-4.25 4.27-2.35 0-4.25-1.91-4.25-4.27 0-2.35 1.9-4.26 4.25-4.26zm100.84 0c2.35 0 4.25 1.91 4.25 4.26 0 2.35-1.91 4.27-4.25 4.27-2.35 0-4.25-1.91-4.25-4.27 0-2.35 1.91-4.26 4.25-4.26zm-34.02 0c2.35 0 4.25 1.91 4.25 4.26 0 2.35-1.91 4.27-4.25 4.27-2.35 0-4.25-1.91-4.25-4.27 0-2.35 1.9-4.26 4.25-4.26zm-150.65 17.67c2.35 0 4.25 1.91 4.25 4.26 0 2.35-1.9 4.26-4.25 4.26s-4.25-1.91-4.25-4.26a4.249 4.249 0 014.25-4.26zm34.01 0c2.35 0 4.25 1.91 4.25 4.26 0 2.35-1.91 4.26-4.25 4.26-2.35 0-4.25-1.91-4.25-4.26 0-2.35 1.9-4.26 4.25-4.26zm100.24 0c2.35 0 4.25 1.91 4.25 4.26 0 2.35-1.91 4.26-4.25 4.26-2.35 0-4.25-1.91-4.25-4.26 0-2.35 1.9-4.26 4.25-4.26zm-117.25 0c2.35 0 4.25 1.91 4.25 4.26 0 2.35-1.9 4.26-4.25 4.26s-4.25-1.91-4.25-4.26c0-2.35 1.9-4.26 4.25-4.26zm133.65 0c2.35 0 4.25 1.91 4.25 4.26 0 2.35-1.91 4.26-4.25 4.26-2.35 0-4.25-1.91-4.25-4.26 0-2.35 1.9-4.26 4.25-4.26zm-49.2 0c2.35 0 4.25 1.91 4.25 4.26 0 2.35-1.91 4.26-4.25 4.26-2.35 0-4.25-1.91-4.25-4.26a4.249 4.249 0 014.25-4.26zm16.4 0c2.35 0 4.25 1.91 4.25 4.26 0 2.35-1.91 4.26-4.25 4.26-2.35 0-4.25-1.91-4.25-4.26 0-2.35 1.9-4.26 4.25-4.26zm-34.02 0c2.35 0 4.25 1.91 4.25 4.26 0 2.35-1.91 4.26-4.25 4.26-2.35 0-4.25-1.91-4.25-4.26 0-2.35 1.9-4.26 4.25-4.26zm84.44 0c2.35 0 4.25 1.91 4.25 4.26 0 2.35-1.91 4.26-4.25 4.26-2.35 0-4.25-1.91-4.25-4.26 0-2.35 1.9-4.26 4.25-4.26zm-100.84 0c2.35 0 4.25 1.91 4.25 4.26 0 2.35-1.9 4.26-4.25 4.26s-4.25-1.91-4.25-4.26a4.242 4.242 0 014.25-4.26zm134.25 0c2.35 0 4.25 1.91 4.25 4.26 0 2.35-1.9 4.26-4.25 4.26s-4.25-1.91-4.25-4.26c0-2.35 1.91-4.26 4.25-4.26zm-150.66 0c2.35 0 4.25 1.91 4.25 4.26 0 2.35-1.91 4.26-4.25 4.26-2.35 0-4.25-1.91-4.25-4.26 0-2.35 1.9-4.26 4.25-4.26zm133.65 0c2.35 0 4.25 1.91 4.25 4.26 0 2.35-1.91 4.26-4.25 4.26-2.35 0-4.25-1.91-4.25-4.26 0-2.35 1.91-4.26 4.25-4.26zm0 16.44c2.35 0 4.25 1.91 4.25 4.26 0 2.35-1.91 4.26-4.25 4.26-2.35 0-4.25-1.91-4.25-4.26 0-2.35 1.91-4.26 4.25-4.26zm-150.66 0c2.35 0 4.25 1.91 4.25 4.26 0 2.35-1.91 4.26-4.25 4.26-2.35 0-4.25-1.91-4.25-4.26 0-2.35 1.9-4.26 4.25-4.26zm-17.01 0c2.35 0 4.25 1.91 4.25 4.26 0 2.35-1.9 4.26-4.25 4.26s-4.25-1.91-4.25-4.26c0-2.35 1.9-4.26 4.25-4.26zm151.27 0c2.35 0 4.25 1.91 4.25 4.26 0 2.35-1.91 4.26-4.25 4.26-2.35 0-4.25-1.91-4.25-4.26 0-2.35 1.9-4.26 4.25-4.26zm-34.02 0c2.35 0 4.25 1.91 4.25 4.26 0 2.35-1.91 4.26-4.25 4.26-2.35 0-4.25-1.91-4.25-4.26 0-2.35 1.9-4.26 4.25-4.26zm-32.8 0c2.35 0 4.25 1.91 4.25 4.26 0 2.35-1.91 4.26-4.25 4.26-2.35 0-4.25-1.91-4.25-4.26a4.249 4.249 0 014.25-4.26zm-17.62 0c2.35 0 4.25 1.91 4.25 4.26 0 2.35-1.91 4.26-4.25 4.26-2.35 0-4.25-1.91-4.25-4.26 0-2.35 1.9-4.26 4.25-4.26zm-16.4 0c2.35 0 4.25 1.91 4.25 4.26 0 2.35-1.9 4.26-4.25 4.26s-4.25-1.91-4.25-4.26a4.242 4.242 0 014.25-4.26zm50.42 0c2.35 0 4.25 1.91 4.25 4.26 0 2.35-1.91 4.26-4.25 4.26-2.35 0-4.25-1.91-4.25-4.26 0-2.35 1.9-4.26 4.25-4.26zm-66.83 0c2.35 0 4.25 1.91 4.25 4.26 0 2.35-1.91 4.26-4.25 4.26-2.35 0-4.25-1.91-4.25-4.26 0-2.35 1.9-4.26 4.25-4.26zm99.63 0c2.35 0 4.25 1.91 4.25 4.26 0 2.35-1.91 4.26-4.25 4.26-2.35 0-4.25-1.91-4.25-4.26 0-2.35 1.9-4.26 4.25-4.26zm-116.64 17.06c2.35 0 4.25 1.91 4.25 4.27 0 2.35-1.91 4.26-4.25 4.26-2.35 0-4.25-1.91-4.25-4.26 0-2.36 1.9-4.27 4.25-4.27zm67.44 0c2.35 0 4.25 1.91 4.25 4.27 0 2.35-1.91 4.26-4.25 4.26-2.35 0-4.25-1.91-4.25-4.26a4.25 4.25 0 014.25-4.27zm-17.62 0c2.35 0 4.25 1.91 4.25 4.27 0 2.35-1.91 4.26-4.25 4.26-2.35 0-4.25-1.91-4.25-4.26 0-2.36 1.9-4.27 4.25-4.27zm50.42 0c2.35 0 4.25 1.91 4.25 4.27 0 2.35-1.91 4.26-4.25 4.26-2.35 0-4.25-1.91-4.25-4.26 0-2.36 1.9-4.27 4.25-4.27zm-66.82 0c2.35 0 4.25 1.91 4.25 4.27 0 2.35-1.9 4.26-4.25 4.26s-4.25-1.91-4.25-4.26a4.244 4.244 0 014.25-4.27zm-16.41 0c2.35 0 4.25 1.91 4.25 4.27 0 2.35-1.91 4.26-4.25 4.26-2.35 0-4.25-1.91-4.25-4.26 0-2.36 1.9-4.27 4.25-4.27zm66.83 0c2.35 0 4.25 1.91 4.25 4.27 0 2.35-1.91 4.26-4.25 4.26-2.35 0-4.25-1.91-4.25-4.26 0-2.36 1.9-4.27 4.25-4.27zm50.42 0c2.35 0 4.25 1.91 4.25 4.27 0 2.35-1.91 4.26-4.25 4.26-2.35 0-4.25-1.91-4.25-4.26 0-2.36 1.9-4.27 4.25-4.27zm-17.62 0c2.35 0 4.25 1.91 4.25 4.27 0 2.35-1.91 4.26-4.25 4.26-2.35 0-4.25-1.91-4.25-4.26 0-2.36 1.9-4.27 4.25-4.27zm-83.22 16.45c2.35 0 4.25 1.91 4.25 4.26 0 2.35-1.9 4.27-4.25 4.27s-4.25-1.91-4.25-4.27a4.242 4.242 0 014.25-4.26zm34.02 0c2.35 0 4.25 1.91 4.25 4.26 0 2.35-1.91 4.27-4.25 4.27-2.35 0-4.25-1.91-4.25-4.27a4.249 4.249 0 014.25-4.26zm-17.62 0c2.35 0 4.25 1.91 4.25 4.26 0 2.35-1.91 4.27-4.25 4.27-2.35 0-4.25-1.91-4.25-4.27 0-2.35 1.9-4.26 4.25-4.26zm50.42 0c2.35 0 4.25 1.91 4.25 4.26 0 2.35-1.91 4.27-4.25 4.27-2.35 0-4.25-1.91-4.25-4.27 0-2.35 1.9-4.26 4.25-4.26zm-16.4 0c2.35 0 4.25 1.91 4.25 4.26 0 2.35-1.91 4.27-4.25 4.27-2.35 0-4.25-1.91-4.25-4.27 0-2.35 1.9-4.26 4.25-4.26zM2324.7.5v52.69h-6.4V.5h6.4zm17.65 27.56c2.09.46 4.15.98 6.18 1.6l-6.78 26.5-6.2-1.6 6.8-26.5zm-46.12-17.29l11.22 43.78-6.2 1.6-11.22-43.78c2.05-.61 4.11-1.14 6.2-1.6zm77.4 9.83c1.9 1.01 3.76 2.04 5.6 3.12l-21.71 39.55-5.61-3.09 21.72-39.58zm-107.88-6.58l25.33 46.17-5.61 3.09-25.33-46.17 5.61-3.09zm.67 44.8l10.22 10.9-4.66 4.39-10.19-10.87a64.44 64.44 0 014.63-4.42zm135.95-27.51l4.66 4.39-36 38.41-4.66-4.39 36-38.41zm-181.78 23.01l44.4 28.23-3.43 5.41-44.4-28.23 3.43-5.41zm169.93 20.27c1.2 1.76 2.34 3.58 3.4 5.44l-12.49 7.94-3.43-5.42 12.52-7.96zm45.58 7.01l1.97 6.1-50.01 16.28-1.98-6.1 50.02-16.28zm-204.79 7.95l25.59 8.33-1.97 6.1-25.56-8.32c.58-2.06 1.23-4.11 1.94-6.11zm-30.91 21.88l52.48 3.31-.4 6.4-52.48-3.31.4-6.4zm242.2 0l.4 6.4-52.48 3.31-.4-6.4 52.48-3.31zm-189.43 20.65l1.19 6.29-14.07 2.69c-.49-2.06-.91-4.16-1.24-6.28l14.12-2.7zm136.66 0l43.61 8.33c-.33 2.12-.76 4.22-1.22 6.29l-43.59-8.33 1.2-6.29zm-132.08 16.71l2.73 5.81-47.58 22.43-2.72-5.8 47.57-22.44zm127.5 0l47.58 22.44-2.72 5.8-47.58-22.43 2.72-5.81zm-8.58 15.06l29.08 24.11c-.02.04-.05.07-.08.12a81.44 81.44 0 01-3.88 4.64c-.04.05-.1.11-.14.16l-29.06-24.08 4.08-4.95zm-110.34-.01l4.07 4.95-33.94 28.13a91.27 91.27 0 01-4.11-4.91l33.98-28.17zm26.81 21.5l5.95 2.36-5.11 12.92a83.51 83.51 0 01-5.95-2.34l5.11-12.94zm71.48-9.05L2380 197.5a86.263 86.263 0 01-5.18 3.75l-15.38-21.2 5.18-3.76zm-86.24 0l5.18 3.77-30.91 42.63-5.18-3.77 30.91-42.63zm54.93 14.14l5.5 43.6c-2.09.33-4.2.59-6.34.8h-.01l-5.49-43.6 6.34-.8zm16.55-5.09l19.36 48.99-5.95 2.36-19.36-48.99 5.95-2.36zm-40.18 5.08l6.35.8-6.59 52.27-6.35-.8 6.59-52.27zm407.9-78.82c.27 3.43.42 6.91.42 10.42s-.15 6.98-.42 10.42V111.6zm-240.73-10.98v43.13c-1.21-7-1.85-14.2-1.85-21.57 0-7.36.64-14.57 1.85-21.56zm11.05-31.82v106.98c-.77-1.37-1.51-2.76-2.22-4.16V72.97c.71-1.4 1.45-2.79 2.22-4.17zm213.61-6.87c8.66 14.86 14.19 31.7 15.72 49.65v20.43c-1.53 17.95-7.06 34.79-15.72 49.65V61.93zm-201.45-12.75v146.23c-1.36-1.76-2.67-3.55-3.93-5.38V54.56c1.26-1.83 2.57-3.62 3.93-5.38zm11.79-14.73v174.69c-1.34-1.28-2.65-2.59-3.93-3.93V38.38c1.28-1.34 2.59-2.64 3.93-3.93zm168.04 0c5 4.65 9.61 9.71 13.76 15.13v145.43c-4.15 5.41-8.76 10.47-13.76 15.12V34.45zm-153.3-11.77v198.25c-2.01-1.41-3.97-2.88-5.9-4.41V27.08c1.93-1.52 3.89-2.99 5.9-4.4zm131.68-4.91c4.8 2.78 9.4 5.86 13.76 9.24v190.57c-4.36 3.37-8.96 6.46-13.76 9.24V17.77zm-117.92-2.94v214.93c-2-1.02-3.96-2.1-5.9-3.22V18.05c1.94-1.13 3.9-2.2 5.9-3.22zm97.29-6.87c4.03 1.44 7.97 3.07 11.79 4.9v217.89c-3.82 1.83-7.76 3.46-11.79 4.9V7.96zm-80.59-.99v229.66c-2.66-.91-5.28-1.91-7.86-2.98V9.96c2.58-1.09 5.2-2.08 7.86-2.99zm15.73-3.92v237.51c-2.65-.51-5.27-1.11-7.86-1.78V4.83c2.58-.68 5.2-1.27 7.86-1.78zm45.2 0c4 .69 7.94 1.58 11.79 2.65v233.2a124.34 124.34 0 01-11.79 2.65V3.05zM2599.97.5c3.23.08 6.44.3 9.6.63v240.76c-3.17.34-6.37.55-9.6.63V.5zm-8.52.59V243.5c-3.31-.14-6.59-.41-9.83-.8V1.89c3.24-.39 6.52-.66 9.83-.8zm280.05 12.27c59.9 0 108.64 48.74 108.64 108.64 0 59.91-48.73 108.64-108.64 108.64S2762.86 181.91 2762.86 122c0-59.91 48.74-108.64 108.64-108.64m0-12.86C2804.4.5 2750 54.9 2750 122s54.4 121.5 121.5 121.5S2993 189.1 2993 122 2938.6.5 2871.5.5"/></svg>