<svg xmlns="http://www.w3.org/2000/svg" viewBox="0 0 243 243"><path fill="#fff" d="M211.25 203.37c1.01-1.12 2.01-2.24 2.97-3.43l25-48.6c.42-1.47.78-2.93 1.07-4.42l-29.04 56.45zm-19.13 16.95c.66-.44 1.25-.85 1.89-1.34l48.96-95.17c.03-.8.04-1.57.01-2.36l-50.86 98.87zm-13.77 8.49c.56-.24 1.1-.54 1.64-.84l62.16-120.82c-.09-.58-.16-1.19-.27-1.82l-63.53 123.48zm-12.39 5.72c.54-.2 1.02-.39 1.52-.61L239.7 93.54a17.7 17.7 0 00-.38-1.6l-73.36 142.59zm-11.43 3.86c.48-.09.94-.24 1.43-.42L236.3 81.81c-.13-.5-.28-.96-.48-1.41l-81.29 157.99zm-10.69 2.5c.42-.07.89-.12 1.35-.27l87-169.12c-.14-.46-.37-.87-.56-1.25l-87.79 170.64zm-10.19 1.46c.38 0 .84-.05 1.27-.12l92.61-180.02c-.19-.38-.41-.79-.64-1.1l-93.24 181.24zm-9.79.65c.4-.03.82-.01 1.24-.08l97.28-189.09c-.19-.38-.45-.72-.66-1.06L123.86 243zm-9.27-.24c.38.1.77.11 1.17.07L216.88 46.27c-.2-.35-.43-.66-.74-.91l-101.55 197.4zM2.67 96.04l29.04-56.45c-1.04 1.1-2.02 2.24-2.97 3.43l-25 48.6c-.42 1.47-.75 2.94-1.07 4.42zm104.01 146.07L211.02 39.3c-.25-.27-.5-.54-.8-.8L105.57 241.93c.38.1.74.14 1.11.18zm-8.71-1.44L204.78 33.05c-.25-.27-.5-.54-.8-.79L96.87 240.48c.38.11.74.15 1.1.19zm-8.39-1.96L198.31 27.36c-.27-.23-.57-.49-.86-.68L88.53 238.41c.33.12.7.22 1.05.3zM0 119.49l49.26-95.75c-.68.47-1.31.96-1.97 1.49L.07 117.02c-.05.84-.08 1.65-.07 2.47zm81.45 116.68L191.51 22.22c-.27-.24-.55-.43-.9-.6L80.43 235.79c.34.17.67.29 1.02.38zm-7.87-3.09L184.43 17.62c-.27-.23-.61-.41-.91-.57L72.59 232.67c.31.16.65.33.99.41zM.88 136.14L63.32 14.78c-.6.32-1.14.62-1.7.96L.68 134.2c.01.64.09 1.31.2 1.94zm65.11 93.42L177.16 13.49l-.08-.04c-.3-.16-.57-.29-.9-.41l-111.12 216c.28.2.55.33.86.49.04.02.04.02.07.03zm-7.31-4.15L169.53 9.95c-.28-.19-.65-.33-.99-.41L57.77 224.85c.26.23.59.44.91.56zM3.33 149.74L75.79 8.91c-.54.21-1.03.39-1.52.62L2.95 148.15c.11.54.24 1.04.38 1.59zm48.31 71.09L161.71 6.89c-.31-.16-.67-.3-1.01-.38L50.75 220.23c.26.23.59.44.89.6zM6.75 161.38L87.24 4.92c-.5.13-.96.27-1.42.42L6.26 159.98c.15.46.3.92.49 1.4zm38.07 54.35L153.59 4.3c-.36-.14-.7-.22-1.07-.26L43.98 215.01c.25.27.52.5.84.72zM10.88 171.7L98.04 2.28c-.42.07-.88.12-1.32.23L10.3 170.49c.17.42.39.83.58 1.21zm27.41 38.35L145.18 2.29c-.38-.1-.75-.14-1.11-.19L37.49 209.26c.25.27.5.54.8.79zm-6.2-6.22L136.51.86c-.36-.04-.76-.11-1.15-.11L31.34 202.96c.22.31.51.6.75.87zm-16.52-22.87L108.29.71c-.44.02-.84.05-1.27.12l-92.1 179.03c.2.38.4.73.65 1.1zm10.64 15.94L127.45.11c-.4-.06-.78-.07-1.19-.03L25.5 195.95c.2.34.43.65.71.95zm-5.54-7.58L118.06 0c-.41.03-.83.01-1.25.08l-96.8 188.18c.18.38.45.71.66 1.06z" opacity=".7"/></svg>