<svg xmlns="http://www.w3.org/2000/svg" width="228" height="32"><path fill="#902082" d="M153 8.7c-1.4 0-2.5 1.1-2.5 2.5v8.5c0 3.3-2.7 6-6 6s-6-2.7-6-6v-8.5c0-1.4-1.1-2.5-2.5-2.5s-2.5 1.1-2.5 2.5v8.5c.1 6.1 5.2 11 11.3 10.9 6-.1 10.8-4.9 10.9-10.9v-8.5c-.2-1.3-1.3-2.5-2.7-2.5M38.5 17.8c-3.6-.8-5-1-5-2.4s1.8-2 3.8-2c1 0 2 .2 2.9.6.3.2.7.2 1 .3 1.3 0 2.4-1 2.4-2.4 0-1-.7-1.9-1.7-2.3-1.5-.5-3.1-.9-4.6-.9-5.8 0-9.1 3.3-9.1 6.6 0 4 3.7 5.8 7.9 6.7 3.2.7 4.2 1 4.2 2.4 0 1.3-1.8 1.9-4 1.9-2 0-3.5-.8-4.8-1.5-1.2-.5-2.6.1-3.1 1.3-.1.3-.2.6-.2.9 0 .9.5 1.7 1.3 2.2 2.1 1.2 4.5 1.8 6.9 1.8 5.4 0 9.3-2.9 9.3-6.6 0-4.3-3-5.7-7.2-6.6m167.1-9.1c-1.4 0-2.5 1.1-2.5 2.5v8.5c0 3.3-2.7 6-6 6s-6-2.7-6-6v-8.5c0-1.4-1.1-2.5-2.5-2.5s-2.5 1.1-2.5 2.5v8.5c0 6.1 5 11.1 11.1 11.1s11.1-5 11.1-11.1v-8.5c-.3-1.3-1.4-2.5-2.7-2.5M220.8 17.8c-3.6-.8-5-1-5-2.4s1.8-2 3.8-2c1 0 2 .2 2.9.6.3.2.7.2 1 .3 1.3 0 2.4-1 2.4-2.4 0-1-.7-1.9-1.7-2.3-1.5-.5-3.1-.9-4.6-.9-5.8 0-9.1 3.3-9.1 6.6 0 4 3.7 5.8 7.9 6.7 3.2.7 4.2 1 4.2 2.4 0 1.3-1.8 1.9-4 1.9-2 0-3.5-.8-4.8-1.5-1.2-.5-2.6.1-3.1 1.3-.1.3-.2.6-.2.9 0 .9.5 1.7 1.3 2.2 2.1 1.2 4.5 1.8 6.9 1.8 5.4 0 9.3-2.9 9.3-6.6.1-4.3-2.9-5.7-7.2-6.6M30.4 7.9c.9-1 1.3-2.4 1.3-3.8V3c0-.8-.3-1.6-.9-2.1-1.1-1.1-3-1.1-4.1 0-.5.5-.9 1.3-.9 2.1s.3 1.6.9 2.1c.4.4 1 .7 1.6.8l-.3.3c-.2.2-.5.3-.8.3-.9 0-1.6.6-1.7 1.5 0 .9.6 1.6 1.5 1.7h.2c1.2-.1 2.3-.6 3.2-1.8m-6.3 18.7c-.4-.4-1-.8-1.7-.7-1 0-2.1-.3-3-.8s-1.7-1.3-2.2-2.2c-.5-.9-.8-1.9-.8-3V13h4.3c1.3 0 2.4-1.1 2.4-2.4 0-.7-.3-1.3-.8-1.7-.5-.4-1.1-.7-1.8-.7h-4.1V4.7c0-.6-.3-1.2-.7-1.7-1-1-2.4-1-3.4 0-.4.4-.7 1-.7 1.7v3.5h-.7c-.6 0-1.2.3-1.7.7-1 1-1 2.4 0 3.4.4.4 1 .7 1.7.7h.7v6.9c0 1.9.5 3.8 1.5 5.4 1 1.7 2.4 3 3.9 3.9 1.7 1 3.5 1.5 5.4 1.5.7 0 1.3-.3 1.7-.7 1-.9 1-2.4 0-3.4zM3.1 0C2.3 0 1.5.3.9.9S0 2.3 0 3.1s.3 1.6.9 2.1c.5.6 1.3 1 2.2 1 .8 0 1.6-.3 2.1-.9.6-.6.8-1.4.8-2.2.1-.9-.3-1.7-.8-2.3C4.6.3 3.8 0 3.1 0m0 8.2c-.6 0-1.3.3-1.7.7s-.7 1-.7 1.7v17.6c0 .6.3 1.2.7 1.7.4.4 1 .8 1.7.7.6 0 1.3-.3 1.7-.7.4-.4.7-1 .7-1.7V10.7c0-.6-.3-1.2-.7-1.7-.5-.5-1.1-.8-1.7-.8m96.7 1.4c-3.8-2.3-8.6-2-12.3.5V4.6c0-.6-.3-1.2-.7-1.7-.4-.4-1-.8-1.7-.7-.6 0-1.3.3-1.7.7-.4.4-.7 1-.7 1.7v23.7c0 1.3 1.1 2.4 2.4 2.4.7 0 1.3-.3 1.7-.7.3-.3.5-.8.7-1.2 3.7 2.5 8.5 2.8 12.3.5 1.7-1 3.1-2.4 4.1-4.2 2.1-3.6 2.1-7.9 0-11.5-.9-1.5-2.3-3-4.1-4m-2.4 15.6c-3.1 1.8-7.1.8-8.9-2.4s-.8-7.1 2.4-8.9c3.1-1.8 7.1-.8 8.9 2.4 1.1 2 1.1 4.5 0 6.6-.6.9-1.4 1.7-2.4 2.3m27.4-15.6c-3.6-2.1-7.9-2.1-11.4 0-1.7 1-3.1 2.4-4.2 4.2-2.1 3.6-2.1 7.9 0 11.4 1 1.7 2.4 3.1 4.2 4.2 3.6 2.1 7.9 2.1 11.5 0 1.7-1 3.1-2.4 4.2-4.2 2.1-3.6 2.1-7.9 0-11.5-1.2-1.6-2.6-3.1-4.3-4.1m-2.5 15.6c-3.1 1.8-7.1.7-8.9-2.4s-.7-7.1 2.4-8.9 7.1-.7 8.9 2.4c1.1 2 1.1 4.5 0 6.5-.6 1-1.3 1.8-2.4 2.4m50.9 1.4c-.4-.4-1-.7-1.7-.7-1 0-2.1-.3-3-.8-.9-.5-1.7-1.3-2.2-2.2-.5-.9-.8-1.9-.8-3V13h4.3c1.3 0 2.4-1.1 2.4-2.4 0-.7-.3-1.3-.8-1.7s-1.1-.7-1.8-.7h-4.1V4.7c0-.6-.3-1.2-.7-1.7-1-1-2.4-1-3.4 0-.4.4-.7 1-.7 1.7v3.5h-.7c-.6 0-1.2.3-1.7.7-1 1-1 2.4 0 3.4.4.4 1 .7 1.7.7h.7v6.9c0 1.9.5 3.8 1.5 5.4 1 1.7 2.4 3 3.9 3.9 1.7 1 3.5 1.5 5.4 1.5.7 0 1.3-.3 1.7-.7.9-.9.9-2.4 0-3.4zM63 19.4c0-3.4 2.8-6.2 6.2-6.2 1.6 0 3.1.6 4.3 1.7v8.9c-1.1 1.1-2.7 1.7-4.3 1.7-3.4.1-6.2-2.7-6.2-6.1M76.1 8.1c-.8 0-1.6.3-2.1 1-5.7-2.7-12.5-.3-15.1 5.4s-.3 12.5 5.4 15.1c3.1 1.5 6.6 1.5 9.7 0 .9 1.1 2.4 1.4 3.6.5.7-.5 1-1.2 1-2.1V10.7c0-1.4-1.1-2.6-2.5-2.6"/></svg>