<svg xmlns="http://www.w3.org/2000/svg" width="228" height="44"><path fill="#E897DE" d="M224.7.1c-5 1.5-8.5 6.1-8.5 11.3v19.5c0 1.5 1.2 2.7 2.7 2.7 1.5 0 2.7-1.2 2.7-2.7V17.4h1.9c1.5 0 2.7-1.2 2.7-2.7S225 12 223.5 12h-1.9v-.7c0-2.8 1.8-5.3 4.5-6.1h.1c1.4-.5 2.1-2.1 1.6-3.5-.5-1.2-1.8-1.9-3.1-1.6zM88.1 12.8c0-1.5-1.2-2.7-2.7-2.7s-2.7 1.2-2.7 2.7v9c0 3.6-2 6.5-5.5 6.5-3.6 0-5.5-2.9-5.5-6.5v-9c0-1.5-1.2-2.7-2.7-2.7s-2.7 1.2-2.7 2.7v9c0 6.5 4.4 11.8 10.8 11.8 1.9 0 3.8-.5 5.5-1.5v.2c0 2.8-1.8 5.3-4.5 6.1H78c-1.4.4-.9 1.9-.4 3.3.4 1.4 1.9 2.2 3.3 1.8 4.9-1.4 7.2-5.9 7.2-11.3V12.8zm86.5 0c0-1.5-1.2-2.7-2.7-2.7-1.5 0-2.7 1.2-2.7 2.7v9c0 3.6-2 6.5-5.5 6.5-3.6 0-5.5-2.9-5.5-6.5v-9c0-1.5-1.2-2.7-2.7-2.7s-2.7 1.2-2.7 2.7v9c0 6.5 4.4 11.8 10.8 11.8 1.9 0 3.8-.5 5.5-1.5v.2c0 2.8-1.8 5.3-4.5 6.1h-.1c-1.4.4-.9 1.9-.4 3.3.4 1.4 1.9 2.2 3.3 1.8 4.9-1.4 7.2-5.9 7.2-11.3V12.8zm24.7-2.3c-5 1.5-8.5 6.1-8.5 11.3v9c0 1.5 1.2 2.7 2.7 2.7 1.5 0 2.7-1.2 2.7-2.7v-8.9c0-2.8 1.8-5.3 4.5-6.1h.1c1.4-.5 2-2.1 1.5-3.5-.5-1.3-1.8-2-3-1.8zM30.4 1.7c-1.5 0-2.7 1.2-2.7 2.7s1.2 2.7 2.7 2.7c1.5 0 2.7-1.2 2.7-2.7s-1.2-2.7-2.7-2.7zm0 8.4c-1.5 0-2.7 1.2-2.7 2.7v18.1c0 1.5 1.2 2.7 2.7 2.7 1.5 0 2.7-1.2 2.7-2.7V12.8c0-1.5-1.2-2.7-2.7-2.7zm178.3-8.4c-1.5 0-2.7 1.2-2.7 2.7s1.2 2.7 2.7 2.7c1.5 0 2.7-1.2 2.7-2.7s-1.2-2.7-2.7-2.7zm0 8.4c-1.5 0-2.7 1.2-2.7 2.7v18.1c0 1.5 1.2 2.7 2.7 2.7 1.5 0 2.7-1.2 2.7-2.7V12.8c-.1-1.5-1.2-2.7-2.7-2.7zm-22.5 2h-1.9v-.8c0-2.8 1.8-5.3 4.5-6.1h.1c1.4-.5 2.1-2.1 1.6-3.5-.4-1.2-1.7-1.9-3.1-1.7-5 1.5-8.5 6.1-8.5 11.3v19.5c0 1.5 1.2 2.7 2.7 2.7 1.5 0 2.7-1.2 2.7-2.7V17.4h1.9c1.5 0 2.7-1.2 2.7-2.7s-1.3-2.6-2.7-2.6zm-45.5 3.3c1.7 0 3.5.8 4.7 2.1 1 1 2.7 1.1 3.8.1s1.1-2.7.1-3.8c-4.5-4.8-11.9-5.1-16.7-.6-4.8 4.5-5.1 11.9-.6 16.7 4.5 4.8 11.9 5.1 16.7.6l.6-.6c1-1 1.1-2.7.1-3.8-1-1-2.7-1.1-3.8-.1l-.3.3c-1.2 1.3-2.9 2.1-4.7 2.1-3.6 0-6.5-2.9-6.5-6.5.2-3.6 3-6.5 6.6-6.5zm-84 4.4c-3.8-.8-5.2-1.1-5.2-2.4 0-1.4 1.9-2.1 4-2.1 1 0 2.1.3 3.1.6.3.2.7.3 1.1.3 1.4 0 2.4-1.1 2.4-2.4 0-1-.7-2-1.7-2.4-1.6-.6-3.2-.9-4.9-.9-6 0-9.5 3.5-9.5 6.9 0 4.2 3.8 6.1 8.2 7 3.3.7 4.4 1 4.4 2.4 0 1.3-1.9 2-4.2 2-2.1 0-3.7-.9-5.1-1.6-.3-.1-.6-.2-1-.2-1.4 0-2.5 1.1-2.5 2.5 0 1 .5 1.8 1.4 2.3 2.2 1.2 4.7 1.9 7.3 1.9 5.7 0 9.7-3.1 9.7-6.8 0-4.7-3.1-6.1-7.5-7.1zM20.5 33.4c-1.5 0-2.6-1.1-2.6-2.6V22c-.3-3.5-3.3-6.1-6.8-5.9-3.1.3-5.7 2.7-5.9 5.9v8.8c-.1 1.5-1.3 2.6-2.7 2.5S0 32.2 0 30.8V22c0-6.5 5.2-11.6 11.6-11.6 6.5 0 11.6 5.2 11.6 11.6v8.8c-.1 1.5-1.2 2.6-2.7 2.6zm94 0c-1.5 0-2.6-1.2-2.6-2.6V22c.1-3.5-2.7-6.4-6.2-6.5-3.5-.1-6.4 2.7-6.5 6.2V30.8c-.1 1.5-1.3 2.6-2.7 2.5-1.4-.1-2.5-1.1-2.5-2.5V22c0-6.5 5.2-11.6 11.6-11.6 6.5 0 11.6 5.2 11.6 11.6v8.8c-.1 1.5-1.2 2.6-2.7 2.6zM96 9.5c.9-1 1.3-2.3 1.3-3.6V4.7c0-.8-.3-1.5-.9-2s-1.2-.9-2-.8c-.8 0-1.5.3-2 .9-.5.5-.9 1.2-.9 2s.3 1.5.9 2c.4.4 1 .7 1.6.8-.1.2-.2.3-.3.3-.2.2-.4.3-.8.3-.8 0-1.5.7-1.5 1.5s.7 1.5 1.5 1.5c1.2-.1 2.2-.6 3.1-1.7z"/></svg>