<svg xmlns="http://www.w3.org/2000/svg" width="147" height="48"><path d="M44.1 34.6c-1.3 2.3-2.9 4.2-4.7 5.9-.3.2-.5.5-.8.7-4.6 4-10.6 6.1-16.6 6.1-4.3 0-8.7-1.1-12.7-3.4-4.1-2.3-7-5.3-9.3-9.3l4.6-2.7.9-.5 16.1-9.3.5-.3.5.3 7.4 4.3 1 .6 13.1 7.6zM21.6 21V4.3h1c2.7 0 5.3.4 7.9 1.2V.7c-4.7 0-8.7 1.1-12.7 3.4C8.2 9.5 3.6 20.2 5.3 30.4L21.6 21zm9.9-14.1c-.3-.1-.7-.2-1-.3-2.5-.8-5.1-1.2-7.9-1.2V21l7.9 4.5 1 .6 13.2 7.6.9.5-.6.9c-1.3 2.2-2.9 4.2-4.7 5.9l4.3 2.5c2.3-4.1 3.4-8.1 3.4-12.7.1-11-6.8-20.3-16.5-23.9zM89.3 37v-5.3h-1V37h1zm-25.1-4v4h.8v-1.6c0-.6.1-1 .3-1.2.3-.3.6-.3.8-.3v-1c-.8 0-1.1.8-1.2 1.1v-1h-.7zm9.3 9.6l.9 2.4h-1l-.8-2.2h-1.4V45h-1v-5.3h2.3c.7 0 1.1.1 1.4.4.3.2.5.6.5 1.1.1.9-.6 1.2-.9 1.4zm0-1.5c0-.4-.3-.8-.9-.8h-1.3v1.6h1.2c.4 0 1-.1 1-.8zm5.1-8.1v4h.9v-1.6c0-.6.1-1 .3-1.2.3-.3.6-.3.8-.3v-1c-.8 0-1.1.8-1.2 1.1v-1h-.8zm41.5 3.7c.2.2.5.3.8.3.2 0 .4 0 .6-.1v-.7h-.2c-.5 0-.6-.1-.6-.6v-1.9h.8V33h-.8v-1.1l-.7.1-.1 1h-.5v.7h.5v2c-.1.5 0 .8.2 1zm-26.2-1.6c0 .3 0 .6.2.9.2.2.4.4.7.4.6 0 .8-.4.9-.6l.8.1c-.3.9-1 1.2-1.7 1.2-1.3 0-1.8-1-1.8-2 0-1.2.7-2.1 1.9-2.1 1.3 0 1.8 1 1.8 2.2h-2.8zm0-.6h1.8c0-.2 0-.4-.2-.6-.2-.2-.4-.3-.7-.3s-.5.1-.7.4c-.2.2-.2.3-.2.5zm-18 2.5c-1.3 0-1.8-1-1.8-2 0-1.2.7-2.1 1.9-2.1 1.3 0 1.8 1 1.8 2.2H75c0 .3 0 .6.2.9.2.2.4.4.7.4.6 0 .8-.4.9-.6l.8.1c-.2.8-.9 1.1-1.7 1.1zm-.9-2.5h1.8c0-.2 0-.4-.2-.6-.2-.2-.4-.3-.7-.3s-.5.1-.7.4c-.1.2-.2.3-.2.5zm-17 .9l-.3-.6-1.9-3.1h-1.1V37h.8v-4c0 .1.2.5.3.6l2.1 3.4h.9v-5.3H58v3.7zm12.8-.3c0-.5 0-.7.2-1 .1-.2.4-.4.7-.4.6 0 .6.5.6.9v2.5h.9v-2.5c0-1.1-.4-1.6-1.2-1.6-.8 0-1.1.6-1.2.9v-2.1h-.9V37h.9v-1.9zm-7.5-.1c0 1.3-.9 2.1-1.9 2.1-1.3 0-1.8-1.2-1.8-2.1 0-1.1.7-2 1.9-2 1.1-.1 1.8.9 1.8 2zm-1 0c0-.7-.2-1.3-.9-1.3s-.9.7-.9 1.3c0 .2 0 1.3.9 1.3.8 0 .9-.9.9-1.3zm-4.4 9.1c0 .4.1.7.1.8h-.8c-.1-.3-.1-.5-.1-.8-.1.3-.4.9-1.3.9-.8 0-1.3-.6-1.3-1.2 0-1.3 1.8-1.4 2.6-1.4v-.3c0-.5-.4-.6-.8-.6-.8 0-.9.4-.9.6l-.9-.1c.2-.9 1-1.1 1.8-1.1.4 0 .9.1 1.2.3.4.4.4.7.4 1.2v1.7zm-.9-1.2c-.6 0-.9.1-1.1.1-.2.1-.6.2-.6.7 0 .1.1.6.7.6.9 0 1-.7 1-1.1v-.3zm4-2c-.7 0-1 .7-1.2 1V41H59v3.9h.9v-1.8c0-1.4.7-1.4.9-1.4.2 0 .6 0 .6.9v2.3h.9v-2.5c0-.5-.1-1.5-1.3-1.5zm7.2-5.3v-1.9h.8V33h-.8v-1.1l-.7.1-.1 1h-.5v.7h.5v2c0 .4 0 .7.3 1 .2.2.5.3.8.3.2 0 .4 0 .6-.1v-.7h-.2c-.5.1-.7 0-.7-.6zm7.9 7.4c0 .3 0 .6.2.9.2.2.4.4.7.4.6 0 .8-.4.9-.6l.8.1c-.3.9-1 1.2-1.7 1.2-1.3 0-1.8-1-1.8-2 0-1.2.7-2.1 1.9-2.1 1.3 0 1.8 1 1.8 2.2h-2.8zm0-.5h1.8c0-.2 0-.4-.2-.6-.2-.2-.4-.3-.7-.3-.3 0-.5.1-.7.4-.1.1-.2.3-.2.5zm-10.3-2.9h.9v5.3h-.8v-.8.1c-.1.3-.4.7-1 .8h-.2c-1.4 0-1.5-1.7-1.5-2.1 0-.8.3-2.1 1.5-2.1.4 0 .8.1 1.1.7v-1.9zm0 3c0-.3 0-.5-.2-.7-.1-.2-.4-.3-.6-.3-.8 0-.8 1-.8 1.4v.1c0 .3.1 1.3.8 1.3.4 0 .8-.4.8-1v-.8zm63.6-10h.9v-.9h-.9v.9zm-4.6 9c.4 0 .7.2.7.7l.8-.1c-.1-.3-.2-1.4-1.5-1.4-1.2 0-1.8 1-1.8 2 0 .9.4 2.1 1.7 2.1 1.3 0 1.5-1.1 1.6-1.4l-.8-.1c-.1.4-.4.8-.8.8-.8 0-.8-1.1-.8-1.2 0-.2 0-.5.1-.7.1-.3.3-.7.8-.7zm2.1-5.8c0 .4 0 .7.3 1 .2.2.5.3.8.3.2 0 .4 0 .6-.1v-.7h-.2c-.5 0-.6-.1-.6-.6v-1.9h.8V33h-.8v-1.1l-.8.1-.1 1h-.5v.7h.5v2.1zm1.5 7.8l-1-2.6h-.9l1.4 3.7.1.2c0 .1-.1.5-.2.6-.2.1-.4.1-.9.1v.7h.5c.4 0 .8-.1 1.1-.9L130 41h-.7l-.9 2.6zm-5-6.6c-.8 0-1.3-.6-1.3-1.2 0-1.3 1.8-1.4 2.6-1.4v-.3c0-.5-.4-.6-.8-.6-.8 0-.9.4-.9.6l-.8-.1c.2-.9 1-1.1 1.8-1.1.4 0 .9.1 1.2.3.4.4.4.7.4 1.2v1.8c0 .4.1.7.1.8h-.8c-.1-.3-.1-.5-.1-.8v.1c-.1.3-.4.8-1.1.8l-.3-.1zm.3-.6c.9 0 1-.7 1-1.1V35c-.6 0-.9.1-1.1.1-.2.1-.6.2-.6.7 0 .1.1.6.7.6zm-6.2-2.5l-.9-.2c-.3-.1-.7-.2-.7-.6 0-.3.2-.7.9-.7.8 0 .9.4 1 .6l.9-.2c0-.2-.1-.4-.4-.7-.4-.3-.9-.5-1.5-.5-1.1 0-1.9.6-1.9 1.6 0 .7.4 1.2 1.2 1.4l1.2.3c.2.1.7.2.7.7 0 .2-.2.7-1.1.7-.2 0-.4 0-.7-.1-.5-.2-.6-.5-.6-.7l-.9.2c.1.2.2.6.5.9.4.4 1 .5 1.6.5 1.2 0 2.1-.6 2.1-1.7 0-1.2-.9-1.4-1.4-1.5zm11.9 3.1h.9v-4h-.9v4zm-8.6 3.9c-.7 0-1 .7-1.2 1V41h-.8v3.9h.9v-1.8c0-1.4.7-1.4.9-1.4.2 0 .6 0 .6.9v2.3h.9v-2.3c0-.5 0-1.7-1.3-1.7zm-5.6 2.1c0 .3 0 .6.2.9.2.2.4.4.7.4.6 0 .8-.4.9-.6l.8.1c-.3.9-1 1.2-1.7 1.2-1.3 0-1.8-1-1.8-2 0-1.2.7-2.1 1.9-2.1 1.3 0 1.8 1 1.8 2.2h-2.8zm0-.5h1.8c0-.2 0-.4-.2-.6-.2-.2-.4-.3-.7-.3-.3 0-.5.1-.7.4-.1.1-.1.3-.2.5zm26.2-8.8c.4 0 .7.2.7.7l.8-.1c-.1-.3-.2-1.4-1.5-1.4-1.2 0-1.8 1-1.8 2 0 .9.4 2.1 1.7 2.1 1.3 0 1.5-1.1 1.6-1.4l-.8-.1c-.1.4-.4.8-.8.8-.8 0-.8-1.1-.8-1.2 0-.2 0-.5.1-.7.2-.3.3-.7.8-.7zm4.2.9l-.8-.2c-.3-.1-.6-.2-.6-.4 0-.3.2-.4.7-.4.6 0 .7.3.7.4l.8-.2c-.2-.8-1.1-.9-1.5-.9-1.3 0-1.5.8-1.5 1.3 0 .9.8 1.1 1.2 1.2l.7.1c.2 0 .4.1.4.4 0 .5-.6.5-.8.5-.6 0-.8-.3-.8-.5l-.8.2c.2.6.7 1 1.7 1 .5 0 1.7-.2 1.7-1.3-.1-.7-.5-1-1.1-1.2zm-7.8-2h.9v-.9h-.9v.9zm-1.7 3v-1.9h.8V33h-.8v-1.1l-.7.1-.1 1h-.5v.7h.5v2c0 .4 0 .7.3 1 .2.2.5.3.8.3.2 0 .4 0 .6-.1v-.7h-.2c-.5.1-.7 0-.7-.6zm-54.5 7l-.8-.2c-.3-.1-.6-.2-.6-.4 0-.3.2-.4.7-.4.6 0 .7.3.7.4l.8-.2c-.2-.8-1.1-.9-1.5-.9-1.3 0-1.5.8-1.5 1.3 0 .9.8 1.1 1.2 1.2l.7.1c.2 0 .4.1.4.4 0 .5-.6.5-.8.5-.6 0-.8-.3-.8-.5l-.9.1c.2.6.7 1 1.7 1 .5 0 1.7-.2 1.7-1.3 0-.6-.3-1-1-1.1zm56.2-5.6h.9v-4h-.9v4zm-4.4-2.4l-.8-.2c-.3-.1-.6-.2-.6-.4 0-.3.2-.4.7-.4.6 0 .7.3.7.4l.8-.2c-.2-.8-1.1-.9-1.5-.9-1.3 0-1.5.8-1.5 1.3 0 .9.8 1.1 1.2 1.2l.7.1c.2 0 .4.1.4.4 0 .5-.6.5-.8.5-.6 0-.8-.3-.8-.5l-.8.2c.2.6.7 1 1.7 1 .5 0 1.7-.2 1.7-1.3-.1-.7-.5-1-1.1-1.2zm-40.9-1.7c-.8 0-1.1.8-1.2 1.1v-1h-.8v4h.9v-1.6c0-.6.1-1 .3-1.2.3-.3.6-.3.8-.3v-1zm.4 8.9v-.9h-.8v3.9h.9v-1.6c0-.6.1-1 .3-1.2.3-.3.6-.3.8-.3v-1h-.2c-.6.2-.9.8-1 1.1zM91 44.1c0 .4.1.7.1.8h-.8c-.1-.3-.1-.5-.1-.8-.2.3-.5.9-1.5.9-.8 0-1.3-.6-1.3-1.2 0-1.3 1.8-1.4 2.6-1.4v-.3c0-.5-.4-.6-.8-.6-.8 0-.9.4-.9.6l-.7-.1c.2-.9 1-1.1 1.8-1.1.4 0 .9.1 1.2.3.4.4.4.7.4 1.2v1.7zm-.9-1.2c-.6 0-.9.1-1.1.1-.2.1-.6.2-.6.7 0 .1.1.6.7.6.9 0 1-.7 1-1.1v-.3zm6.3-1.3c.4 0 .7.2.7.7l.8-.1c-.1-.3-.2-1.4-1.5-1.4-1.2 0-1.8 1-1.8 2 0 .9.4 2.1 1.7 2.1 1.3 0 1.5-1.1 1.6-1.4l-.8-.1c-.1.4-.4.8-.8.8-.8 0-.8-1.1-.8-1.2 0-.2 0-.5.1-.7.1-.3.3-.7.8-.7zm-13.2-7.9c.2 0 .6 0 .6.9V37h.9v-2.5c0-.6-.1-1.5-1.3-1.5-.7 0-1 .7-1.2 1v-1h-.8v4h.9v-1.8c0-1.4.7-1.5.9-1.5zm.9 9.3c0 .3 0 .6.2.9.2.2.4.4.7.4.6 0 .8-.4.9-.6l.8.1c-.3.9-1 1.2-1.7 1.2-1.3 0-1.8-1-1.8-2 0-1.2.7-2.1 1.9-2.1 1.3 0 1.8 1 1.8 2.2h-2.8zm0-.5h1.8c0-.2 0-.4-.2-.6-.2-.2-.4-.3-.7-.3-.3 0-.5.1-.7.4-.2.1-.2.3-.2.5zm18.7-6.3c0 .4.1.7.1.8h-.9c-.1-.3-.1-.5-.1-.8v.1c-.1.3-.4.8-1.1.8h-.2c-.8 0-1.3-.6-1.3-1.2 0-1.3 1.8-1.4 2.6-1.4v-.3c0-.5-.4-.6-.8-.6-.8 0-.9.4-.9.6l-.8-.1c.2-.9 1-1.1 1.8-1.1.4 0 .9.1 1.2.3.4.4.4.7.4 1.2v1.7zm-.9-1.2c-.6 0-.9.1-1.1.1-.2.1-.6.2-.6.7 0 .1.1.6.7.6.9 0 1-.7 1-1.1V35zm6 4.6l1.8 5.3h-1l-.4-1.3h-2l-.4 1.3h-.8l1.8-5.3h1zm.1 3.3l-.8-2.4-.8 2.4h1.6zm-2.4-9.2c.2 0 .6 0 .6.9V37h.9v-2.3c0-.5 0-1.7-1.3-1.7-.7 0-1 .7-1.2 1v-1h-.8v4h.9v-1.8c.1-1.4.7-1.5.9-1.5zm4.1 3.3h-.2c-1.4 0-1.5-1.7-1.5-2.1 0-.8.3-2.1 1.5-2.1.4 0 .8.1 1.1.7v-1.9h.9V37h-.8v-.8.1c-.1.2-.4.7-1 .7zm.1-.7c.4 0 .8-.4.8-1v-.7c0-.3 0-.5-.2-.7-.1-.2-.4-.3-.6-.3-.8 0-.8 1-.8 1.4 0 .3 0 1.3.8 1.3zm3.9 3.9h.3v.7h-.3c-.3 0-.4.1-.6.3.2.2.5.4.5.8 0 .7-.6 1.2-1.6 1.2-.3 0-.5 0-.7-.1-.1.1-.3.1-.3.4 0 .1.1.4.6.4h1c1 0 1.4.6 1.4 1.1 0 .5-.4 1.3-2 1.3-1 0-1.9-.2-1.9-1.1 0-.5.3-.6.6-.8-.2-.2-.4-.4-.4-.6 0-.5.4-.7.6-.8-.2-.1-.6-.4-.6-.9 0-.4.2-1.2 1.6-1.2.4 0 .5 0 .8.1.1-.3.2-.5.4-.6.1-.1.3-.2.6-.2zm-2.8 4.5c-.1.1-.2.2-.2.3 0 .2.3.5.6.6.3.1.5.1.7.1.4 0 1-.1 1-.5 0-.3-.3-.4-.6-.4h-.6c-.2 0-.6 0-.9-.1zm1.7-2.6c0-.2-.1-.6-.7-.6s-.7.4-.7.7c0 .3.2.6.7.6.2 0 .4-.1.5-.1.2-.3.2-.4.2-.6zm-11.9-1.3c-.8 0-1.1.6-1.2.9v-2.1h-.9v5.3h.9V43c0-.5 0-.7.2-1 .1-.2.4-.4.7-.4.6 0 .6.5.6.9V45h.9v-2.5c0-1.2-.4-1.7-1.2-1.7zM97.5 37h.9v-5.3h-.9V37zm12.5-9.3h-4.2V4.2H116c2.9 0 4.7.6 6.1 1.8 1.2 1.1 2.1 2.7 2.1 5.1 0 4.4-3 5.7-4.2 6.2l4.1 10.4h-4.5l-3.7-9.6h-6v9.6zm0-13.1h5.3c2.1 0 4.5-.7 4.5-3.6 0-1.8-1.2-3.5-4.2-3.5H110v7.1zm19.2 13.1h-3.6l7.8-23.5h5.2l7.9 23.5H142l-1.9-5.6h-9l-1.9 5.6zm2.9-9h6.8l-3.4-10.5-3.4 10.5zm-38.8 5.9c-.8 0-1.8-.1-2.9-.5-2.1-.7-2.5-2.2-2.7-3l-4.1.9c.4 1.1.8 2.5 2.4 3.8 1.9 1.5 4.4 2.2 7.2 2.2 5.4 0 9.3-2.7 9.3-7.4 0-5-4.1-6.2-6.1-6.7l-4-1c-1.2-.3-3.3-1-3.3-2.8 0-1.2.8-2.9 4-2.9 3.3 0 4 1.9 4.3 2.7l4-1c-.2-.8-.6-1.9-2-3-1.8-1.4-4.1-2-6.4-2-4.7 0-8.3 2.6-8.3 7 0 3 1.7 5.4 5.1 6.3l5.2 1.3c1.1.3 2.9.8 2.9 3.1.1 1-.7 3-4.6 3zM57.8 10.1l1.3 2.6 9.2 15h3.9V4.2h-3.4v16.6c-.8-1.5-1.4-2.6-1.4-2.7L59.1 4.2h-4.7v23.5h3.4V10.1zm23.4-5.9H77v23.5h4.2V4.2z" fill="#222"/></svg>