<svg xmlns="http://www.w3.org/2000/svg" width="189" height="19"><path d="M67.5 7.1c-1 0-1.9.3-2.3.5l.3.7c.4-.2 1.2-.4 1.9-.4 1.1 0 1.9.4 1.9 1.6v.5c-2.5.2-4.5.8-4.5 2.9 0 1.4.9 2.3 2.9 2.3 1.1 0 2-.2 2.6-.5v-5c-.1-2-1.4-2.6-2.8-2.6zm1.6 7c-.3.2-.9.3-1.5.3-1.2 0-2-.5-2-1.6 0-1.7 1.4-2 3.5-2.3v3.6zm21.6-6.8h1.4v1h-1.4V13c0 .6.3 1.1 1 1.1.1 0 .3 0 .4-.1v1c-.1.1-.5.2-.9.2-1.5 0-2.1-1-2.1-2.1V8.3h-1v-1h1V5.5l1.5-.5v2.3zM80.3 5.1h1.6L79 10.7V15h-1.6v-4.3l-2.8-5.5h1.7l2 4.2 2-4.3zm7 7.6c0 1.2-1.1 2.4-2.8 2.4-.9 0-1.8-.3-2.2-.6l.4-1.1c.3.2.9.5 1.6.5.8 0 1.4-.5 1.4-1.2 0-1.8-3.2-1-3.2-3.5 0-1.1 1-2.2 2.5-2.2.9 0 1.5.2 2 .6l-.4 1c-.2-.2-.7-.4-1.3-.4-.8 0-1.3.5-1.3 1.1 0 1.6 3.3.9 3.3 3.4zm-59.8-.5c0 1.7-1.3 2.9-3.1 2.9-1 0-1.9-.2-2.4-.5l.3-.9c.4.2 1.1.5 1.8.5 1.2 0 2.2-.8 2.2-1.9 0-1.1-.9-1.5-1.8-1.9l-.3-.1c-1-.4-2-1-2-2.5S23.3 5 25.1 5c.9 0 1.7.3 2.1.5l-.3.8c-.3-.2-1-.5-1.7-.5-1.2 0-1.9.8-1.9 1.8 0 2.4 4.2 1.3 4.2 4.6zm30.6-4.9c-.4-.1-.8-.2-1.3-.2-2.1 0-3.4 1.5-3.4 4.1 0 2.4 1.2 3.9 3.4 3.9 1.1 0 1.9-.2 2.4-.5V3.8h-1.1v3.5zm0 6.8c-.3.2-.7.3-1.3.3-1.7 0-2.4-1.3-2.4-3.2 0-1.7.7-3.3 2.6-3.3.4 0 .8 0 1.1.1v6.1zM37.4 7.3h1L36.1 15h-1l-1.6-5.6c-.1-.5-.2-.9-.2-.9s0 .5-.2.9L31.4 15h-1l-2.3-7.7h1.1l1.5 5.6c.1.4.2.8.2.9 0 0 0-.5.2-1l1.6-5.6h1l1.6 5.6c.1.4.2 1 .2 1s.1-.6.2-1l1.7-5.5zm13.5 0c-.4-.1-.8-.2-1.3-.2-2.1 0-3.4 1.5-3.4 4.1 0 2.4 1.2 3.9 3.4 3.9 1.1 0 1.9-.2 2.4-.5V3.8h-1.1v3.5zm0 6.8c-.3.2-.7.3-1.3.3-1.7 0-2.4-1.3-2.4-3.2 0-1.7.7-3.3 2.6-3.3.4 0 .8 0 1.1.1v6.1zM63.8 3.7h.2v.7c-.7 0-1.4.5-1.4 1.6v1.2h1.5v.7h-1.5v7h-1.1v-7h-1.1v-.6h1.1V6.1c0-1.3.8-2.4 2.3-2.4zM44.4 7.3h1L41.7 18h-1.2l1.3-3.1-2.7-7.7h1.2l1.7 5.6c.2.5.2 1 .2 1s.1-.5.3-1l1.9-5.5zm122.7-.2c-1.2 0-2.1.3-2.6.6l.4.9c.5-.2 1.3-.4 2-.4 1 0 1.7.3 1.7 1.4v.4c-2.4.2-4.5.8-4.5 2.8 0 1.5 1 2.4 3.1 2.4 1.2 0 2.2-.2 2.8-.6V9.7c0-1.9-1.2-2.6-2.9-2.6zm1.4 6.8c-.3.1-.7.3-1.2.3-1.1 0-1.8-.4-1.8-1.5 0-1.5 1.2-1.8 3-2v3.2zm13.7-6.8c-2.2 0-3.3 1.8-3.3 4s1.1 4 3.3 4c2.2 0 3.3-1.7 3.3-4s-1.1-4-3.3-4zm0 6.9c-1.3 0-1.7-1.4-1.7-2.9s.4-3 1.7-3c1.3 0 1.7 1.5 1.7 3s-.4 2.9-1.7 2.9zm-23.5-6.7h1.4l-2.2 7.7h-1.4l-1.4-5-.2-1s0 .5-.2 1l-1.5 5h-1.4l-2.2-7.7h1.6l1.3 5.1c.1.6.2 1.1.2 1.1s.1-.5.2-1.1l1.5-5.1h1.4l1.4 5.1c.1.5.2 1.1.2 1.1s0-.6.2-1.1l1.1-5.1zm2.5-3.5h1.5V15h-1.5V3.8zM176 7.3c-.3-.1-.8-.2-1.3-.2-2 0-3.5 1.6-3.5 4.1 0 2.5 1.3 3.9 3.6 3.9 1.2 0 2.1-.2 2.7-.6V3.8H176v3.5zm0 6.5c-.2.1-.6.2-1.1.2-1.5 0-2.1-1.1-2.1-3 0-1.6.6-3.1 2.2-3.1.3 0 .7 0 .9.1v5.8zM96 7.1c-1.2 0-2.1.3-2.6.6l.4.9c.5-.2 1.3-.4 2-.4 1 0 1.7.3 1.7 1.4v.4c-2.4.2-4.5.8-4.5 2.8 0 1.5 1 2.4 3.1 2.4 1.2 0 2.2-.2 2.8-.6V9.7c-.1-1.9-1.3-2.6-2.9-2.6zm1.4 6.8c-.3.1-.7.3-1.2.3-1.1 0-1.8-.4-1.8-1.5 0-1.5 1.2-1.8 3-2v3.2zm91-10.1V15h-1.5V3.8h1.5zm-62.6 3.3c-1.2 0-2.1.3-2.6.6l.4.9c.5-.2 1.3-.4 2-.4 1 0 1.7.3 1.7 1.4v.4c-2.4.2-4.5.8-4.5 2.8 0 1.5 1 2.4 3.1 2.4 1.2 0 2.2-.2 2.8-.6V9.7c-.1-1.9-1.3-2.6-2.9-2.6zm1.4 6.8c-.3.1-.7.3-1.2.3-1.1 0-1.8-.4-1.8-1.5 0-1.5 1.2-1.8 3-2v3.2zm-12-2.6c0 2.3 1.3 3.8 3.2 3.8.7 0 1.3-.1 1.6-.3v.5c0 1.1-.6 1.8-1.9 1.8-.8 0-1.6-.2-2.1-.4l-.4 1.1c.5.3 1.5.5 2.7.5 1.9 0 3.3-1.1 3.3-3.1V7.6c-.6-.3-1.6-.5-2.6-.5-2.5 0-3.8 1.7-3.8 4.2zm4.7 2.5c-.3.2-.7.3-1.1.3-1.3 0-2-1-2-2.9s.7-3.2 2.1-3.2c.5 0 .8.1 1.1.2v5.6zM111 7.1c-2 0-3.3 1.5-3.3 4 0 2.6 1.4 4.1 3.6 4.1 1.2 0 2-.3 2.6-.6l-.4-1c-.4.2-1.1.4-2 .4-1.3 0-2.1-.8-2.3-2.3l5-.7c0-2.6-1.1-3.9-3.2-3.9zm-1.9 3.8c0-1.9.8-2.8 1.9-2.8 1 0 1.7.7 1.7 2.3l-3.6.5zm-4.2-3.6c-.3-.1-.8-.2-1.3-.2-2 0-3.5 1.6-3.5 4.1 0 2.5 1.3 3.9 3.6 3.9 1.2 0 2.1-.2 2.7-.6V3.8h-1.5v3.5zm0 6.5c-.2.1-.6.2-1.1.2-1.5 0-2.1-1.1-2.1-3 0-1.6.6-3.1 2.2-3.1.3 0 .7 0 .9.1v5.8zm40.2-4.4h3.2v5.2c-.6.3-1.5.6-2.8.6-2.7 0-4.5-1.8-4.5-5.1 0-3.2 2-5 4.5-5 1.2 0 2 .3 2.5.6l-.4 1c-.3-.2-1.1-.4-1.9-.4-1.8 0-3.1 1.2-3.1 3.9 0 2.6 1.2 3.9 2.7 3.9.6 0 1.1-.1 1.3-.2v-3.3H145V9.4zm-10.6-2.1h1.5v7.3c-.6.3-1.6.6-2.9.6-2.1 0-3-1-3-2.6V7.3h1.5v5.3c0 .8.5 1.4 1.5 1.4.6 0 1-.1 1.3-.3V7.3zM0 10.8V7.3c.2.9.4 1.3.7 2.1-.3.4-.4.8-.7 1.4zM4.3 5C6.9 2.8 9.9 1.5 14.6.8h-13S0 .8 0 2.8v.3c.2 1.8.7 3.7 1.3 5.3C2.2 7 3 6.1 4.3 5zm.9 1.2C3.8 7.4 3 8.4 2 10c2.1 4 6.3 7.4 12.8 7.8h.1s2 .1 2-2.2V1.9h-.1c-5.3.5-8.9 2-11.6 4.3zm-2.1 7.1c-.6-.7-1.1-1.5-1.6-2.3C.9 12.1.4 13.3 0 14.5v3.3h9.9c-3.1-1-5-2.4-6.8-4.5z" fill="#222"/></svg>