<svg xmlns="http://www.w3.org/2000/svg" width="195" height="19"><path d="M77 8h.6l-.3.9c-.7-.2-1.8-.2-2.3.1v7.1h-1.2V8.5c.9-.3 1.7-.5 3.2-.5zm10.8 4.5c0 .6.1 1.2.1 1.2s-.2-.5-.6-1.1L83 6h-1.7v10.2h1.5V9.3 8.2s.2.5.6 1l4.5 7h1.5V6h-1.5v6.5zM101.4 6l-1.7.5v1.8h-1.1v1h1.1v5c0 1.1.6 2.2 2.3 2.2.4 0 .8-.1.9-.2v-1.1c-.2 0-.3.1-.5.1-.7 0-1.1-.5-1.1-1.1V9.3h1.6v-1h-1.6V6zm-29.1 6.2c0 2.4-1.1 4.2-3.4 4.2-2.4 0-3.4-1.8-3.4-4.2 0-2.4 1.1-4.2 3.4-4.2s3.4 1.8 3.4 4.2zm-1.2 0c0-1.6-.5-3.4-2.3-3.4-1.7 0-2.3 1.8-2.3 3.4 0 1.6.5 3.3 2.3 3.3 1.8 0 2.3-1.7 2.3-3.3zm26.2-1.4v5.1c-.7.3-1.8.6-3.1.6-2.3 0-3.5-.9-3.5-2.5 0-2.2 2.3-2.7 4.9-3v-.5c0-1.1-.7-1.4-1.8-1.4-.8 0-1.7.2-2.2.5l-.4-1c.7-.2 1.7-.6 3-.6 1.8 0 3.1.8 3.1 2.8zm-1.6 1c-2 .2-3.3.6-3.3 2.1 0 1.1.8 1.5 2 1.5.6 0 1-.1 1.3-.3v-3.3zM32.7 7v1.2h-1.2v.7h1.2v7.3h1.2V8.9h1.7v-.7h-1.7V6.9c0-1.1.7-1.6 1.5-1.6h.1v-.8h-.3c-1.7 0-2.5 1-2.5 2.5zm4.8 0v1.2h-1.2v.7h1.2v7.3h1.2V8.9h1.7v-.7h-1.7V6.9c0-1.1.7-1.6 1.5-1.6h.1v-.8H40c-1.7 0-2.5 1-2.5 2.5zm24.3 0v1.2h-1.2v.7h1.2v7.3H63V8.9h1.7v-.7H63V6.9c0-1.1.7-1.6 1.5-1.6h.1v-.8h-.3c-1.6 0-2.5 1-2.5 2.5zm-31.5 4.1c0 2.9-1.3 5.3-4.1 5.3-2.9 0-4.2-2.4-4.2-5.3s1.3-5.3 4.2-5.3c2.8 0 4.1 2.4 4.1 5.3zM29 11c0-2.1-.7-4.4-2.9-4.4-2.1 0-2.9 2.3-2.9 4.4 0 2.1.7 4.4 2.9 4.4S29 13.1 29 11zm75.2 5.2h1.7v-8h-1.7v8zM48.1 8.8c.6 0 1.1.2 1.4.4l.3-.7c-.3-.3-1-.5-2-.5-1.9 0-3.4 1.6-3.4 4.2s1.5 4.2 3.4 4.2c1 0 1.7-.3 2-.5l-.3-.9c-.3.2-.8.4-1.4.4-1.5 0-2.4-1.4-2.4-3.4-.1-1.8.8-3.2 2.4-3.2zm-5.9-3.6c-.4 0-.7.3-.7.7 0 .4.3.7.7.7.4 0 .7-.3.7-.7 0-.4-.3-.7-.7-.7zm-.6 11h1.2v-8h-1.2v8zm15.7-4.3l-5.6.8c.1 1.9 1.2 2.8 2.8 2.8 1 0 1.7-.3 2.2-.5l.3.8c-.5.3-1.4.5-2.6.5-2.3 0-3.8-1.3-3.8-4.2C50.6 9.4 52 8 54 8c2.1 0 3.3 1.2 3.3 3.9zm-1.1-.5c0-1.9-.9-2.6-2.2-2.6-1.3 0-2.4 1-2.4 3.3l4.6-.7zM176.5 6l-1.7.5v1.8h-1.1v1h1.1v5c0 1.1.6 2.2 2.3 2.2.4 0 .8-.1.9-.2v-1.1c-.2 0-.3.1-.5.1-.7 0-1.1-.5-1.1-1.1V9.3h1.6v-1h-1.6V6zm-7.3 4.3c0-.6.5-1.1 1.4-1.1.7 0 1.2.3 1.5.5l.4-1c-.5-.4-1.2-.7-2.2-.7-1.7 0-2.8 1.2-2.8 2.3 0 2.6 3.5 1.7 3.5 3.6 0 .7-.7 1.2-1.6 1.2-.7 0-1.4-.2-1.7-.5l-.5 1.1c.5.3 1.4.6 2.4.6 1.9 0 3.1-1.2 3.1-2.5.1-2.5-3.5-1.7-3.5-3.5zm-4.1-5.2c-.5 0-1 .4-1 .9s.4.9 1 .9c.5 0 1-.4 1-.9s-.5-.9-1-.9zm14.3 11.1h1.7v-8h-1.7v8zm-15.2 0h1.7v-8h-1.7v8zm26.8-5.9c0-.6.5-1.1 1.4-1.1.7 0 1.2.3 1.5.5l.4-1c-.5-.3-1.3-.6-2.3-.6-1.7 0-2.8 1.2-2.8 2.3 0 2.6 3.5 1.7 3.5 3.6 0 .7-.7 1.2-1.6 1.2-.7 0-1.4-.2-1.7-.5l-.5 1.1c.5.3 1.4.6 2.4.6 1.9 0 3.1-1.2 3.1-2.5.2-2.6-3.4-1.8-3.4-3.6zm-10.7-5.2c-.5 0-1 .4-1 .9s.4.9 1 .9c.5 0 1-.4 1-.9s-.5-.9-1-.9zm6.2 10.1c-1.3 0-2.1-1.2-2.1-3s.7-3 2.1-3c.6 0 1 .2 1.3.4l.4-1c-.4-.3-1.1-.6-2-.6-1.9 0-3.5 1.6-3.5 4.2s1.5 4.2 3.5 4.2c1 0 1.7-.3 2.1-.6l-.4-1.1c-.5.3-.9.5-1.4.5zM105.1 5.1c-.5 0-1 .4-1 .9s.4.9 1 .9c.5 0 1-.4 1-.9s-.4-.9-1-.9zm27.4 11.1h1.7V4.6h-1.7v11.6zM119.3 8c-1.3 0-2.4.3-3.2.6v7.6h1.7V9.3c.3-.1.8-.2 1.4-.2 1 0 1.9.4 1.9 1.4v5.7h1.7v-5.7c0-1.8-1.4-2.5-3.5-2.5zm42-2l-1.7.5v1.8h-1.1v1h1.1v5c0 1.1.6 2.2 2.3 2.2.4 0 .8-.1.9-.2v-1.1c-.2 0-.3.1-.5.1-.7 0-1.1-.5-1.1-1.1V9.3h1.6v-1h-1.6V6zm-46.5 6.2c0 2.4-1.2 4.2-3.6 4.2-2.4 0-3.7-1.8-3.7-4.2 0-2.4 1.2-4.2 3.7-4.2 2.3 0 3.6 1.9 3.6 4.2zm-1.8 0c0-1.6-.4-3.1-1.9-3.1s-1.9 1.5-1.9 3.1.5 3 1.9 3c1.5.1 1.9-1.4 1.9-3zm17.7-1.4v5.1c-.7.3-1.8.6-3.1.6-2.4 0-3.5-.9-3.5-2.5 0-2.2 2.3-2.7 4.9-3v-.5c0-1.1-.7-1.4-1.8-1.4-.8 0-1.7.2-2.2.5l-.4-1c.6-.2 1.6-.6 2.9-.6 1.9 0 3.2.8 3.2 2.8zm-1.6 1c-2 .2-3.3.6-3.3 2.1 0 1.1.8 1.5 2 1.5.6 0 1-.1 1.3-.3v-3.3zm28.2-1v5.1c-.7.3-1.8.6-3.1.6-2.3 0-3.5-.9-3.5-2.5 0-2.2 2.3-2.7 4.9-3v-.5c0-1.1-.8-1.4-1.8-1.4-.8 0-1.7.2-2.2.5l-.4-1c.6-.2 1.6-.6 2.9-.6 1.8 0 3.2.8 3.2 2.8zm-1.6 1c-2 .2-3.3.6-3.3 2.1 0 1.1.8 1.5 2 1.5.6 0 1-.1 1.3-.3v-3.3zm-15.5-3.1c0-1 .7-1.6 1.8-1.6.7 0 1.4.3 1.8.5l.4-1.1c-.5-.3-1.4-.6-2.5-.6-2.1 0-3.4 1.4-3.4 3 0 3.2 4.2 2.3 4.2 4.6 0 1-.8 1.7-2 1.7-.8 0-1.6-.3-2-.5l-.5 1.2c.6.3 1.6.6 2.8.6 2.1 0 3.6-1.4 3.6-3.2.1-3.4-4.2-2.5-4.2-4.6zm8.1-2.7l-1.7.5v1.8h-1.1v1h1.1v5c0 1.1.6 2.2 2.3 2.2.4 0 .8-.1.9-.2v-1.1c-.2 0-.3.1-.5.1-.7 0-1.1-.5-1.1-1.1V9.3h1.6v-1h-1.6V6zM3.1 13.5c-.6-.7-1.1-1.5-1.6-2.3C.9 12.3.4 13.5 0 14.7V18h9.9c-3.1-1-5-2.4-6.8-4.5zm2.1-7.1C3.8 7.6 3 8.6 2 10.2c2.1 4 6.3 7.4 12.8 7.8h.1s2 .1 2-2.2V2.1h-.1c-5.3.5-8.9 2-11.6 4.3zm-.9-1.2C6.9 3 9.9 1.7 14.6 1h-13S0 1 0 3v.3C.2 5.1.7 7 1.3 8.6c.9-1.4 1.7-2.3 3-3.4zM.7 9.5C.4 8.7.2 8.3 0 7.4v3.5c.3-.5.4-.9.7-1.4z" fill="#222"/></svg>